<svg width="77" height="85" viewBox="0 0 77 85" fill="none" xmlns="http://www.w3.org/2000/svg">
<path fill-rule="evenodd" clip-rule="evenodd" d="M38.058 0.188668C37.3245 0.561025 37.3105 0.693916 37.3507 6.88589L37.3884 12.6591L37.7381 12.9432C38.2236 13.3376 38.9626 13.3102 39.3625 12.8833C39.6818 12.5422 39.6845 12.49 39.6845 6.72654C39.6845 3.52963 39.643 0.805696 39.5925 0.673401C39.5059 0.446717 38.8026 -0.00471936 38.5438 3.72948e-05C38.4787 0.00122646 38.26 0.0861026 38.058 0.188668ZM30.807 1.13272C30.6381 1.3481 30.4999 1.64465 30.4999 1.79181C30.4999 1.93882 30.966 4.55528 31.5356 7.60608C32.6668 13.6647 32.6697 13.6732 33.6754 13.6732C34.244 13.6732 34.7961 13.1555 34.7955 12.6232C34.7952 12.424 34.3327 9.78671 33.7677 6.76252C32.6414 0.734495 32.6438 0.741035 31.6053 0.741035C31.251 0.741035 31.0283 0.85029 30.807 1.13272ZM46.701 1.21224C46.2592 1.42689 46.1096 1.82288 45.5367 4.29515C45.2603 5.48788 44.6971 7.85759 44.2851 9.56107C43.8731 11.2645 43.5361 12.7894 43.5361 12.9496C43.5361 13.3914 44.1952 13.9705 44.6981 13.9705C45.6412 13.9705 45.6749 13.8847 47.1153 7.82474C48.5644 1.7273 48.5776 1.58861 47.741 1.2063C47.3042 1.00652 47.1221 1.00756 46.701 1.21224ZM22.5679 3.63293C22.3419 3.85947 22.2042 4.16821 22.2042 4.44736C22.2042 5.08936 26.5552 14.8462 27.0311 15.2711C27.237 15.4552 27.5715 15.6056 27.7743 15.6056C28.2626 15.6056 28.8704 14.9799 28.8704 14.4774C28.8704 13.9024 24.4655 4.01005 24.0281 3.60246C23.5605 3.16693 23.021 3.17808 22.5679 3.63293ZM54.6616 4.44201C54.507 4.5972 53.2299 7.02413 51.8234 9.83532C49.3295 14.8206 49.2717 14.9572 49.4751 15.3822C49.5899 15.6218 49.8624 15.9182 50.0807 16.041C50.4339 16.2396 50.5296 16.2394 50.9507 16.0393C51.3667 15.8416 51.735 15.2038 53.995 10.7675C56.6889 5.47971 56.8502 5.03332 56.276 4.45717C55.8909 4.0707 55.0397 4.06267 54.6616 4.44201ZM15.464 7.89817C14.9084 8.04904 14.6484 8.39613 14.6518 8.98209C14.654 9.34018 15.1756 10.116 17.106 12.6327C18.4543 14.3904 20.0217 16.4408 20.5889 17.1893C21.1561 17.9377 21.7238 18.5898 21.8503 18.6386C22.3331 18.8245 22.9018 18.7181 23.2154 18.3832C23.8728 17.6808 23.735 17.4003 20.9314 13.7353C15.9326 7.20087 16.3582 7.65528 15.464 7.89817ZM62.323 9.01702C62.186 9.05329 61.2194 10.0934 60.175 11.3282C59.1305 12.5631 57.4588 14.5395 56.46 15.7202C55.4614 16.9009 54.6058 18.0208 54.5587 18.2088C54.3775 18.9335 55.1995 19.7167 55.9642 19.5481C56.3128 19.4713 57.1579 18.5589 59.9945 15.1979C61.9685 12.8588 63.6739 10.7635 63.7841 10.5418C64.2265 9.65204 63.3557 8.74322 62.323 9.01702ZM8.8326 14.1563C8.4421 14.4539 8.28834 15.0385 8.48047 15.4951C8.65513 15.91 16.9519 22.7994 17.5748 23.0468C17.9676 23.2027 18.6087 22.9965 18.8913 22.6233C18.9973 22.4834 19.086 22.1594 19.0885 21.9031C19.0937 21.3986 18.9438 21.2396 16.8663 19.5447C10.3686 14.244 10.0094 13.9705 9.54307 13.9705C9.28635 13.9705 8.96681 14.0542 8.8326 14.1563ZM68.1561 15.5698C67.6811 15.8226 66.7002 16.5331 61.5022 20.39C58.8245 22.3768 58.599 22.6422 58.8874 23.4675C59.0361 23.8932 59.8645 24.2602 60.3064 24.0961C60.4469 24.044 62.6036 22.5011 65.0993 20.6674C70.1338 16.9685 70.3625 16.7221 69.5715 15.8489C69.1121 15.3419 68.7271 15.2659 68.1561 15.5698ZM35.3885 16.7261C27.7671 17.9352 21.465 23.3088 19.0953 30.6188C18.4013 32.7599 18.1293 34.5988 18.1391 37.0849C18.1526 40.5488 18.7654 43.221 20.2095 46.1118C20.8155 47.3254 21.1854 47.9024 23.2222 50.8124C24.1629 52.1566 25.2945 54.4538 25.8278 56.1018C26.2407 57.3777 26.7965 59.9342 26.7965 60.557V60.9425H38.4966H50.1967L50.2669 60.608C50.3056 60.4242 50.4143 59.7719 50.5087 59.1587C50.7548 57.559 51.6919 54.7987 52.5736 53.0763C52.9915 52.2599 53.868 50.8364 54.5216 49.9127C56.7161 46.811 57.7183 44.7516 58.4606 41.8179C58.8462 40.2943 58.868 40.0282 58.861 36.9362C58.8538 33.7491 58.8419 33.6226 58.3909 31.9566C56.1772 23.7806 49.7344 17.9572 41.5362 16.7224C39.7466 16.4527 37.1007 16.4544 35.3885 16.7261ZM37.3143 21.232C37.3143 22.5279 37.3853 23.7924 37.4721 24.0421C37.6466 24.5447 38.0415 24.7488 39.1167 24.8925C40.327 25.0541 41.5651 26.2025 41.9032 27.4769C42.4097 29.3868 41.041 31.3995 39.0109 31.7298C37.8725 31.915 37.7618 31.9652 37.5392 32.3973C37.3656 32.7343 37.3143 33.3768 37.3143 35.2194V37.6051H35.0416H32.769L32.5841 36.9734C32.0047 34.9931 30.1594 33.3934 28.0016 33.0007C25.3111 32.5112 22.5287 34.1381 21.6178 36.7338C21.3688 37.4433 21.2921 37.5308 20.9194 37.5308H20.5006L20.5175 36.1147C20.5933 29.7736 24.7114 23.5162 30.6919 20.6548C32.7082 19.6899 35.207 18.9904 36.981 18.8939C37.3134 18.8758 37.3143 18.8822 37.3143 21.232ZM42.351 19.2645C45.9195 20.0528 49.006 21.8176 51.6516 24.5829C53.7597 26.7864 55.2582 29.4458 56.0365 32.3658C56.4165 33.7913 56.8185 36.9856 56.6677 37.3801C56.6009 37.5549 56.3196 37.6051 55.4082 37.6051C53.8797 37.6051 53.6449 37.7822 53.4639 39.0706C53.185 41.0574 51.5914 42.3844 49.7477 42.1653C48.0262 41.9607 46.8002 40.7445 46.597 39.0399C46.5498 38.6436 46.4272 38.2088 46.3247 38.0737C46.2222 37.9387 46.114 37.7947 46.0844 37.7538C46.0548 37.7129 44.6193 37.646 42.8945 37.6051L39.7586 37.5308L39.717 35.7977L39.6753 34.0645L40.3864 33.8276C44.3552 32.505 45.6413 27.4167 42.7913 24.314C42.2101 23.6815 40.3726 22.5919 39.8869 22.5919C39.7266 22.5919 39.6845 22.2035 39.6845 20.7232V18.8544L40.5363 18.9531C41.0049 19.0075 41.8214 19.1477 42.351 19.2645ZM4.48044 21.4029C4.07231 21.5664 3.68686 22.12 3.68686 22.5424C3.68686 22.7241 3.83678 23.0379 4.02017 23.24C4.20816 23.4472 6.5449 24.6541 9.38204 26.0093C13.7083 28.0759 14.4789 28.3985 14.8998 28.3192C15.3855 28.2278 15.8342 27.6621 15.8342 27.1412C15.8342 26.582 14.9629 26.0598 10.2442 23.7912C7.53639 22.4894 5.2032 21.3909 5.05936 21.35C4.91552 21.3091 4.65509 21.3329 4.48044 21.4029ZM67.536 25.2088C64.726 26.3959 62.3094 27.4736 62.166 27.6038C61.7489 27.9826 61.8198 28.8946 62.2956 29.2701C62.5103 29.4396 62.814 29.5783 62.9703 29.5783C63.1267 29.5783 65.5676 28.6069 68.3945 27.4196C73.9358 25.0923 74.3046 24.8738 74.1399 24.017C74.0316 23.4533 73.5577 23.0358 73.0363 23.0443C72.8213 23.0477 70.3462 24.0218 67.536 25.2088ZM1.51145 29.7247C0.794899 30.0215 0.636242 31.1541 1.24405 31.6339C1.44863 31.7953 2.09852 32.0329 2.6884 32.1617C12.7485 34.3592 12.7064 34.3513 13.1511 34.1206C13.8533 33.7562 13.9777 32.9565 13.427 32.3483C13.132 32.0227 12.4786 31.849 7.76067 30.8413C4.82753 30.2149 2.29436 29.6773 2.1314 29.6465C1.96845 29.6159 1.68951 29.651 1.51145 29.7247ZM69.3863 32.4074C64.4911 33.2287 64.1828 33.299 63.8681 33.6657C63.6849 33.8793 63.5348 34.2208 63.5348 34.4243C63.5348 34.9466 64.1576 35.5241 64.7207 35.5241C64.9728 35.5241 67.5914 35.1195 70.5398 34.6251C76.447 33.6344 76.571 33.5927 76.571 32.5996C76.571 31.8661 76.139 31.5075 75.2748 31.5242C74.8879 31.5316 72.238 31.9291 69.3863 32.4074ZM27.9075 35.3885C29.2963 35.7639 30.2841 36.9133 30.4539 38.3515C30.5116 38.8413 30.6691 39.2723 30.8802 39.5186L31.215 39.9091H34.2646H37.3143V41.6594V43.4097L36.9069 43.5624C35.1373 44.2255 34.1096 45.1043 33.3889 46.5707C32.4954 48.3891 32.553 50.4002 33.5477 52.1034C34.1301 53.1005 35.4058 54.1897 36.4308 54.5647L37.3143 54.8878V56.726V58.5641H33.1041H28.894L28.798 58.0811C28.1577 54.8566 26.4969 51.1997 24.3691 48.329C22.6067 45.9513 21.7189 44.1702 21.0253 41.6215C20.8589 41.01 20.7228 40.3517 20.7228 40.1586C20.7228 39.8342 20.7764 39.81 21.4264 39.8403C23.1336 39.92 23.434 39.734 23.5977 38.4958C23.8064 36.9165 24.7206 35.8181 26.203 35.3656C26.7434 35.2008 27.2369 35.2073 27.9075 35.3885ZM3.04394 38.3409C0.699202 38.4227 0.697276 38.423 0.340411 38.8398C-0.0754142 39.3256 -0.0980801 39.5429 0.2059 40.1328C0.360557 40.4327 0.575654 40.5905 0.909558 40.6494C1.17428 40.6959 3.87455 40.6764 6.9102 40.6063C12.4112 40.479 12.431 40.4774 12.7987 40.1308C13.2582 39.6976 13.2882 38.9801 12.8657 38.5251C12.5694 38.206 12.4946 38.2003 8.97703 38.2294C7.00442 38.2458 4.33452 38.296 3.04394 38.3409ZM64.5742 39.5827C63.7561 39.9921 63.6193 41.0778 64.3271 41.543C64.5847 41.7125 65.9581 41.8609 69.8428 42.1391C76.4449 42.6118 76.3215 42.6123 76.7083 42.1187C77.1079 41.6093 77.097 41.1359 76.6751 40.6436L76.3347 40.2466L71.4533 39.9005C68.7684 39.7102 66.2041 39.52 65.7548 39.4776C65.2549 39.4306 64.797 39.4714 64.5742 39.5827ZM44.5064 40.4463C45.2613 42.6344 46.8946 44.0543 49.1377 44.4729C51.5368 44.9206 54.0914 43.5787 55.2432 41.266C55.4854 40.7798 55.6835 40.3001 55.6835 40.2C55.6835 40.1 55.8501 39.9861 56.0538 39.947C56.479 39.8656 56.4772 39.8574 56.2637 40.9052C55.7934 43.2143 54.6428 45.6758 52.8934 48.1157C51.467 50.1052 50.5527 51.6674 49.8523 53.3119C49.2454 54.7371 48.4999 57.0353 48.3536 57.9324L48.2505 58.5641H43.9675H39.6845V55.9562C39.6845 53.3852 39.6793 53.3428 39.3208 52.9832C39.0634 52.7248 38.7932 52.6179 38.395 52.6168C37.6574 52.6149 36.4384 52.0358 35.9525 51.4562C34.7817 50.0601 34.8358 48.0108 36.0765 46.766C36.6563 46.1841 37.4315 45.8147 38.321 45.6964C39.6429 45.5204 39.6845 45.4234 39.6845 42.517C39.6845 40.9745 39.7417 39.9891 39.8328 39.9586C39.9144 39.9314 40.959 39.9131 42.1541 39.9181L44.3272 39.927L44.5064 40.4463ZM7.36306 45.6934C4.53717 46.446 2.05274 47.1406 1.84194 47.2369C0.798011 47.7142 1.1645 49.3481 2.31554 49.3481C2.59523 49.3481 5.23476 48.7109 8.18108 47.9321C13.8924 46.4225 14.0457 46.3581 14.0533 45.4679C14.0579 44.9256 13.4339 44.2903 12.9156 44.3096C12.6876 44.318 10.189 44.9408 7.36306 45.6934ZM63.3867 45.6757C62.6158 46.0669 62.4764 47.202 63.1457 47.6381C63.6354 47.9573 73.7716 51.1317 74.3011 51.1319C74.8418 51.1319 75.3859 50.5669 75.3859 50.0053C75.3859 49.2259 74.8996 48.9747 71.0899 47.7853C69.0937 47.1621 66.6468 46.3892 65.6522 46.0678C64.6576 45.7463 63.8243 45.4844 63.8004 45.4856C63.7766 45.4868 63.5904 45.5724 63.3867 45.6757ZM27.0985 64.6867C26.7999 65.0082 26.7101 65.5975 26.8885 66.0641C27.1459 66.7371 27.189 66.7397 38.4699 66.7397C49.4617 66.7397 49.897 66.7174 50.2055 66.1393C50.4577 65.6663 50.3708 65.0268 50.0077 64.6845L49.6648 64.3613H38.5327H27.4006L27.0985 64.6867ZM30.7221 69.075C29.8071 69.2993 29.453 70.4125 30.102 71.0245L30.445 71.3477H38.6093H46.7737L47.0806 70.956C47.4845 70.4409 47.4688 69.9723 47.0303 69.4608L46.6728 69.0437L38.8456 69.023C34.5407 69.0117 30.8851 69.035 30.7221 69.075ZM30.4999 75.7112C30.4999 78.6193 30.6263 79.3992 31.3305 80.8399C32.3613 82.9484 34.4226 84.4853 36.7478 84.8789C38.1824 85.1216 40.3888 84.9869 41.5243 84.5872C43.7213 83.8138 45.4387 82.061 46.2195 79.795C46.5047 78.9674 46.5454 78.5237 46.5583 76.1043L46.573 73.3544L38.5364 73.3159L30.4999 73.2775V75.7112ZM44.275 76.8104C44.271 79.4612 43.2686 81.1974 41.1727 82.1838C40.4245 82.5359 40.1858 82.5703 38.4994 82.5692C36.9139 82.5682 36.5472 82.5216 35.9489 82.2453C34.9693 81.7928 33.8359 80.6765 33.3547 79.6904C33.0035 78.9704 32.9392 78.6322 32.8921 77.2563L32.8374 75.6584H38.557H44.2768L44.275 76.8104Z" fill="#6F6F6F"/>
</svg>
