<svg width="150" height="159" viewBox="0 0 150 159" fill="none" xmlns="http://www.w3.org/2000/svg">
<path d="M2.83929 39.75C4.40738 39.75 5.67857 38.4788 5.67857 36.9107C5.67857 35.3426 4.40738 34.0714 2.83929 34.0714C1.27119 34.0714 0 35.3426 0 36.9107C0 38.4788 1.27119 39.75 2.83929 39.75Z" fill="#FFC226"/>
<path d="M19.8744 39.75C21.4425 39.75 22.7137 38.4788 22.7137 36.9107C22.7137 35.3426 21.4425 34.0714 19.8744 34.0714C18.3063 34.0714 17.0352 35.3426 17.0352 36.9107C17.0352 38.4788 18.3063 39.75 19.8744 39.75Z" fill="#FFC226"/>
<path d="M36.9106 39.75C38.4787 39.75 39.7499 38.4788 39.7499 36.9107C39.7499 35.3426 38.4787 34.0714 36.9106 34.0714C35.3425 34.0714 34.0713 35.3426 34.0713 36.9107C34.0713 38.4788 35.3425 39.75 36.9106 39.75Z" fill="#FFC226"/>
<path d="M53.9457 39.75C55.5138 39.75 56.785 38.4788 56.785 36.9107C56.785 35.3426 55.5138 34.0714 53.9457 34.0714C52.3776 34.0714 51.1064 35.3426 51.1064 36.9107C51.1064 38.4788 52.3776 39.75 53.9457 39.75Z" fill="#FFC226"/>
<path d="M70.9828 39.75C72.5509 39.75 73.8221 38.4788 73.8221 36.9107C73.8221 35.3426 72.5509 34.0714 70.9828 34.0714C69.4147 34.0714 68.1436 35.3426 68.1436 36.9107C68.1436 38.4788 69.4147 39.75 70.9828 39.75Z" fill="#FFC226"/>
<path d="M88.018 39.75C89.5861 39.75 90.8573 38.4788 90.8573 36.9107C90.8573 35.3426 89.5861 34.0714 88.018 34.0714C86.4499 34.0714 85.1787 35.3426 85.1787 36.9107C85.1787 38.4788 86.4499 39.75 88.018 39.75Z" fill="#FFC226"/>
<path d="M105.054 39.75C106.622 39.75 107.893 38.4788 107.893 36.9107C107.893 35.3426 106.622 34.0714 105.054 34.0714C103.486 34.0714 102.215 35.3426 102.215 36.9107C102.215 38.4788 103.486 39.75 105.054 39.75Z" fill="#FFC226"/>
<path d="M2.83929 56.7857C4.40738 56.7857 5.67857 55.5146 5.67857 53.9465C5.67857 52.3784 4.40738 51.1072 2.83929 51.1072C1.27119 51.1072 0 52.3784 0 53.9465C0 55.5146 1.27119 56.7857 2.83929 56.7857Z" fill="#FFC226"/>
<path d="M19.8744 56.7857C21.4425 56.7857 22.7137 55.5146 22.7137 53.9465C22.7137 52.3784 21.4425 51.1072 19.8744 51.1072C18.3063 51.1072 17.0352 52.3784 17.0352 53.9465C17.0352 55.5146 18.3063 56.7857 19.8744 56.7857Z" fill="#FFC226"/>
<path d="M36.9106 56.7857C38.4787 56.7857 39.7499 55.5146 39.7499 53.9465C39.7499 52.3784 38.4787 51.1072 36.9106 51.1072C35.3425 51.1072 34.0713 52.3784 34.0713 53.9465C34.0713 55.5146 35.3425 56.7857 36.9106 56.7857Z" fill="#FFC226"/>
<path d="M53.9457 56.7856C55.5138 56.7856 56.785 55.5144 56.785 53.9463C56.785 52.3782 55.5138 51.1071 53.9457 51.1071C52.3776 51.1071 51.1064 52.3782 51.1064 53.9463C51.1064 55.5144 52.3776 56.7856 53.9457 56.7856Z" fill="#FFC226"/>
<path d="M70.9828 56.7856C72.5509 56.7856 73.8221 55.5144 73.8221 53.9463C73.8221 52.3782 72.5509 51.1071 70.9828 51.1071C69.4147 51.1071 68.1436 52.3782 68.1436 53.9463C68.1436 55.5144 69.4147 56.7856 70.9828 56.7856Z" fill="#FFC226"/>
<path d="M88.018 56.7857C89.5861 56.7857 90.8573 55.5146 90.8573 53.9465C90.8573 52.3784 89.5861 51.1072 88.018 51.1072C86.4499 51.1072 85.1787 52.3784 85.1787 53.9465C85.1787 55.5146 86.4499 56.7857 88.018 56.7857Z" fill="#FFC226"/>
<path d="M105.054 56.7857C106.622 56.7857 107.893 55.5146 107.893 53.9465C107.893 52.3784 106.622 51.1072 105.054 51.1072C103.486 51.1072 102.215 52.3784 102.215 53.9465C102.215 55.5146 103.486 56.7857 105.054 56.7857Z" fill="#FFC226"/>
<path d="M2.83929 73.8214C4.40738 73.8214 5.67857 72.5502 5.67857 70.9821C5.67857 69.414 4.40738 68.1428 2.83929 68.1428C1.27119 68.1428 0 69.414 0 70.9821C0 72.5502 1.27119 73.8214 2.83929 73.8214Z" fill="#FFC226"/>
<path d="M19.8744 73.8214C21.4425 73.8214 22.7137 72.5502 22.7137 70.9821C22.7137 69.414 21.4425 68.1428 19.8744 68.1428C18.3063 68.1428 17.0352 69.414 17.0352 70.9821C17.0352 72.5502 18.3063 73.8214 19.8744 73.8214Z" fill="#FFC226"/>
<path d="M36.9106 73.8214C38.4787 73.8214 39.7499 72.5502 39.7499 70.9821C39.7499 69.414 38.4787 68.1428 36.9106 68.1428C35.3425 68.1428 34.0713 69.414 34.0713 70.9821C34.0713 72.5502 35.3425 73.8214 36.9106 73.8214Z" fill="#FFC226"/>
<path d="M53.9457 73.8213C55.5138 73.8213 56.785 72.5501 56.785 70.982C56.785 69.4139 55.5138 68.1427 53.9457 68.1427C52.3776 68.1427 51.1064 69.4139 51.1064 70.982C51.1064 72.5501 52.3776 73.8213 53.9457 73.8213Z" fill="#FFC226"/>
<path d="M70.9828 73.8213C72.5509 73.8213 73.8221 72.5501 73.8221 70.982C73.8221 69.4139 72.5509 68.1427 70.9828 68.1427C69.4147 68.1427 68.1436 69.4139 68.1436 70.982C68.1436 72.5501 69.4147 73.8213 70.9828 73.8213Z" fill="#FFC226"/>
<path d="M88.018 73.8214C89.5861 73.8214 90.8573 72.5502 90.8573 70.9821C90.8573 69.414 89.5861 68.1428 88.018 68.1428C86.4499 68.1428 85.1787 69.414 85.1787 70.9821C85.1787 72.5502 86.4499 73.8214 88.018 73.8214Z" fill="#FFC226"/>
<path d="M105.054 73.8214C106.622 73.8214 107.893 72.5502 107.893 70.9821C107.893 69.414 106.622 68.1428 105.054 68.1428C103.486 68.1428 102.215 69.414 102.215 70.9821C102.215 72.5502 103.486 73.8214 105.054 73.8214Z" fill="#FFC226"/>
<path d="M2.83929 90.8572C4.40738 90.8572 5.67857 89.586 5.67857 88.0179C5.67857 86.4498 4.40738 85.1786 2.83929 85.1786C1.27119 85.1786 0 86.4498 0 88.0179C0 89.586 1.27119 90.8572 2.83929 90.8572Z" fill="#FFC226"/>
<path d="M19.8744 90.8572C21.4425 90.8572 22.7137 89.586 22.7137 88.0179C22.7137 86.4498 21.4425 85.1786 19.8744 85.1786C18.3063 85.1786 17.0352 86.4498 17.0352 88.0179C17.0352 89.586 18.3063 90.8572 19.8744 90.8572Z" fill="#FFC226"/>
<path d="M36.9106 90.8572C38.4787 90.8572 39.7499 89.586 39.7499 88.0179C39.7499 86.4498 38.4787 85.1786 36.9106 85.1786C35.3425 85.1786 34.0713 86.4498 34.0713 88.0179C34.0713 89.586 35.3425 90.8572 36.9106 90.8572Z" fill="#FFC226"/>
<path d="M53.9457 90.8574C55.5138 90.8574 56.785 89.5862 56.785 88.0181C56.785 86.45 55.5138 85.1788 53.9457 85.1788C52.3776 85.1788 51.1064 86.45 51.1064 88.0181C51.1064 89.5862 52.3776 90.8574 53.9457 90.8574Z" fill="#FFC226"/>
<path d="M70.9828 90.8574C72.5509 90.8574 73.8221 89.5862 73.8221 88.0181C73.8221 86.45 72.5509 85.1788 70.9828 85.1788C69.4147 85.1788 68.1436 86.45 68.1436 88.0181C68.1436 89.5862 69.4147 90.8574 70.9828 90.8574Z" fill="#FFC226"/>
<path d="M88.018 90.8572C89.5861 90.8572 90.8573 89.586 90.8573 88.0179C90.8573 86.4498 89.5861 85.1786 88.018 85.1786C86.4499 85.1786 85.1787 86.4498 85.1787 88.0179C85.1787 89.586 86.4499 90.8572 88.018 90.8572Z" fill="#FFC226"/>
<path d="M105.054 90.8572C106.622 90.8572 107.893 89.586 107.893 88.0179C107.893 86.4498 106.622 85.1786 105.054 85.1786C103.486 85.1786 102.215 86.4498 102.215 88.0179C102.215 89.586 103.486 90.8572 105.054 90.8572Z" fill="#FFC226"/>
<path d="M2.83929 107.893C4.40738 107.893 5.67857 106.622 5.67857 105.054C5.67857 103.485 4.40738 102.214 2.83929 102.214C1.27119 102.214 0 103.485 0 105.054C0 106.622 1.27119 107.893 2.83929 107.893Z" fill="#FFC226"/>
<path d="M19.8744 107.893C21.4425 107.893 22.7137 106.622 22.7137 105.054C22.7137 103.485 21.4425 102.214 19.8744 102.214C18.3063 102.214 17.0352 103.485 17.0352 105.054C17.0352 106.622 18.3063 107.893 19.8744 107.893Z" fill="#FFC226"/>
<path d="M36.9106 107.893C38.4787 107.893 39.7499 106.622 39.7499 105.054C39.7499 103.485 38.4787 102.214 36.9106 102.214C35.3425 102.214 34.0713 103.485 34.0713 105.054C34.0713 106.622 35.3425 107.893 36.9106 107.893Z" fill="#FFC226"/>
<path d="M53.9457 107.893C55.5138 107.893 56.785 106.621 56.785 105.053C56.785 103.485 55.5138 102.214 53.9457 102.214C52.3776 102.214 51.1064 103.485 51.1064 105.053C51.1064 106.621 52.3776 107.893 53.9457 107.893Z" fill="#FFC226"/>
<path d="M70.9828 107.893C72.5509 107.893 73.8221 106.621 73.8221 105.053C73.8221 103.485 72.5509 102.214 70.9828 102.214C69.4147 102.214 68.1436 103.485 68.1436 105.053C68.1436 106.621 69.4147 107.893 70.9828 107.893Z" fill="#FFC226"/>
<path d="M88.018 107.893C89.5861 107.893 90.8573 106.622 90.8573 105.054C90.8573 103.485 89.5861 102.214 88.018 102.214C86.4499 102.214 85.1787 103.485 85.1787 105.054C85.1787 106.622 86.4499 107.893 88.018 107.893Z" fill="#FFC226"/>
<path d="M105.054 107.893C106.622 107.893 107.893 106.622 107.893 105.054C107.893 103.485 106.622 102.214 105.054 102.214C103.486 102.214 102.215 103.485 102.215 105.054C102.215 106.622 103.486 107.893 105.054 107.893Z" fill="#FFC226"/>
<path d="M2.83929 124.929C4.40738 124.929 5.67857 123.657 5.67857 122.089C5.67857 120.521 4.40738 119.25 2.83929 119.25C1.27119 119.25 0 120.521 0 122.089C0 123.657 1.27119 124.929 2.83929 124.929Z" fill="#FFC226"/>
<path d="M19.8744 124.929C21.4425 124.929 22.7137 123.657 22.7137 122.089C22.7137 120.521 21.4425 119.25 19.8744 119.25C18.3063 119.25 17.0352 120.521 17.0352 122.089C17.0352 123.657 18.3063 124.929 19.8744 124.929Z" fill="#FFC226"/>
<path d="M36.9106 124.929C38.4787 124.929 39.7499 123.657 39.7499 122.089C39.7499 120.521 38.4787 119.25 36.9106 119.25C35.3425 119.25 34.0713 120.521 34.0713 122.089C34.0713 123.657 35.3425 124.929 36.9106 124.929Z" fill="#FFC226"/>
<path d="M53.9457 124.929C55.5138 124.929 56.785 123.658 56.785 122.089C56.785 120.521 55.5138 119.25 53.9457 119.25C52.3776 119.25 51.1064 120.521 51.1064 122.089C51.1064 123.658 52.3776 124.929 53.9457 124.929Z" fill="#FFC226"/>
<path d="M70.9828 124.929C72.5509 124.929 73.8221 123.658 73.8221 122.089C73.8221 120.521 72.5509 119.25 70.9828 119.25C69.4147 119.25 68.1436 120.521 68.1436 122.089C68.1436 123.658 69.4147 124.929 70.9828 124.929Z" fill="#FFC226"/>
<path d="M88.018 124.929C89.5861 124.929 90.8573 123.657 90.8573 122.089C90.8573 120.521 89.5861 119.25 88.018 119.25C86.4499 119.25 85.1787 120.521 85.1787 122.089C85.1787 123.657 86.4499 124.929 88.018 124.929Z" fill="#FFC226"/>
<path d="M105.054 124.929C106.622 124.929 107.893 123.657 107.893 122.089C107.893 120.521 106.622 119.25 105.054 119.25C103.486 119.25 102.215 120.521 102.215 122.089C102.215 123.657 103.486 124.929 105.054 124.929Z" fill="#FFC226"/>
<path d="M2.83929 141.964C4.40738 141.964 5.67857 140.693 5.67857 139.125C5.67857 137.557 4.40738 136.286 2.83929 136.286C1.27119 136.286 0 137.557 0 139.125C0 140.693 1.27119 141.964 2.83929 141.964Z" fill="#FFC226"/>
<path d="M19.8744 141.964C21.4425 141.964 22.7137 140.693 22.7137 139.125C22.7137 137.557 21.4425 136.286 19.8744 136.286C18.3063 136.286 17.0352 137.557 17.0352 139.125C17.0352 140.693 18.3063 141.964 19.8744 141.964Z" fill="#FFC226"/>
<path d="M36.9106 141.964C38.4787 141.964 39.7499 140.693 39.7499 139.125C39.7499 137.557 38.4787 136.286 36.9106 136.286C35.3425 136.286 34.0713 137.557 34.0713 139.125C34.0713 140.693 35.3425 141.964 36.9106 141.964Z" fill="#FFC226"/>
<path d="M53.9457 141.964C55.5138 141.964 56.785 140.693 56.785 139.125C56.785 137.557 55.5138 136.286 53.9457 136.286C52.3776 136.286 51.1064 137.557 51.1064 139.125C51.1064 140.693 52.3776 141.964 53.9457 141.964Z" fill="#FFC226"/>
<path d="M70.9828 141.964C72.5509 141.964 73.8221 140.693 73.8221 139.125C73.8221 137.557 72.5509 136.286 70.9828 136.286C69.4147 136.286 68.1436 137.557 68.1436 139.125C68.1436 140.693 69.4147 141.964 70.9828 141.964Z" fill="#FFC226"/>
<path d="M88.018 141.964C89.5861 141.964 90.8573 140.693 90.8573 139.125C90.8573 137.557 89.5861 136.286 88.018 136.286C86.4499 136.286 85.1787 137.557 85.1787 139.125C85.1787 140.693 86.4499 141.964 88.018 141.964Z" fill="#FFC226"/>
<path d="M105.054 141.964C106.622 141.964 107.893 140.693 107.893 139.125C107.893 137.557 106.622 136.286 105.054 136.286C103.486 136.286 102.215 137.557 102.215 139.125C102.215 140.693 103.486 141.964 105.054 141.964Z" fill="#FFC226"/>
<path d="M2.83929 159C4.40738 159 5.67857 157.729 5.67857 156.161C5.67857 154.593 4.40738 153.321 2.83929 153.321C1.27119 153.321 0 154.593 0 156.161C0 157.729 1.27119 159 2.83929 159Z" fill="#FFC226"/>
<path d="M19.8744 159C21.4425 159 22.7137 157.729 22.7137 156.161C22.7137 154.593 21.4425 153.321 19.8744 153.321C18.3063 153.321 17.0352 154.593 17.0352 156.161C17.0352 157.729 18.3063 159 19.8744 159Z" fill="#FFC226"/>
<path d="M36.9106 159C38.4787 159 39.7499 157.729 39.7499 156.161C39.7499 154.593 38.4787 153.321 36.9106 153.321C35.3425 153.321 34.0713 154.593 34.0713 156.161C34.0713 157.729 35.3425 159 36.9106 159Z" fill="#FFC226"/>
<path d="M53.9457 159C55.5138 159 56.785 157.729 56.785 156.161C56.785 154.593 55.5138 153.321 53.9457 153.321C52.3776 153.321 51.1064 154.593 51.1064 156.161C51.1064 157.729 52.3776 159 53.9457 159Z" fill="#FFC226"/>
<path d="M70.9828 159C72.5509 159 73.8221 157.729 73.8221 156.161C73.8221 154.593 72.5509 153.321 70.9828 153.321C69.4147 153.321 68.1436 154.593 68.1436 156.161C68.1436 157.729 69.4147 159 70.9828 159Z" fill="#FFC226"/>
<path d="M88.018 159C89.5861 159 90.8573 157.729 90.8573 156.161C90.8573 154.593 89.5861 153.321 88.018 153.321C86.4499 153.321 85.1787 154.593 85.1787 156.161C85.1787 157.729 86.4499 159 88.018 159Z" fill="#FFC226"/>
<path d="M105.054 159C106.622 159 107.893 157.729 107.893 156.161C107.893 154.593 106.622 153.321 105.054 153.321C103.486 153.321 102.215 154.593 102.215 156.161C102.215 157.729 103.486 159 105.054 159Z" fill="#FFC226"/>
<path d="M53.9457 5.67857C55.5138 5.67857 56.785 4.40738 56.785 2.83929C56.785 1.27119 55.5138 0 53.9457 0C52.3776 0 51.1064 1.27119 51.1064 2.83929C51.1064 4.40738 52.3776 5.67857 53.9457 5.67857Z" fill="#0F4775"/>
<path d="M70.9819 5.67857C72.55 5.67857 73.8211 4.40738 73.8211 2.83929C73.8211 1.27119 72.55 0 70.9819 0C69.4138 0 68.1426 1.27119 68.1426 2.83929C68.1426 4.40738 69.4138 5.67857 70.9819 5.67857Z" fill="#0F4775"/>
<path d="M88.017 5.67857C89.5851 5.67857 90.8563 4.40738 90.8563 2.83929C90.8563 1.27119 89.5851 0 88.017 0C86.4489 0 85.1777 1.27119 85.1777 2.83929C85.1777 4.40738 86.4489 5.67857 88.017 5.67857Z" fill="#0F4775"/>
<path d="M105.053 5.67857C106.621 5.67857 107.892 4.40738 107.892 2.83929C107.892 1.27119 106.621 0 105.053 0C103.485 0 102.214 1.27119 102.214 2.83929C102.214 4.40738 103.485 5.67857 105.053 5.67857Z" fill="#0F4775"/>
<path d="M122.089 5.67857C123.657 5.67857 124.929 4.40738 124.929 2.83929C124.929 1.27119 123.657 0 122.089 0C120.521 0 119.25 1.27119 119.25 2.83929C119.25 4.40738 120.521 5.67857 122.089 5.67857Z" fill="#0F4775"/>
<path d="M139.124 5.67857C140.693 5.67857 141.964 4.40738 141.964 2.83929C141.964 1.27119 140.693 0 139.124 0C137.556 0 136.285 1.27119 136.285 2.83929C136.285 4.40738 137.556 5.67857 139.124 5.67857Z" fill="#0F4775"/>
<path d="M53.9457 22.7143C55.5138 22.7143 56.785 21.4431 56.785 19.8751C56.785 18.307 55.5138 17.0358 53.9457 17.0358C52.3776 17.0358 51.1064 18.307 51.1064 19.8751C51.1064 21.4431 52.3776 22.7143 53.9457 22.7143Z" fill="#0F4775"/>
<path d="M70.9819 22.7143C72.55 22.7143 73.8211 21.4431 73.8211 19.8751C73.8211 18.307 72.55 17.0358 70.9819 17.0358C69.4138 17.0358 68.1426 18.307 68.1426 19.8751C68.1426 21.4431 69.4138 22.7143 70.9819 22.7143Z" fill="#0F4775"/>
<path d="M88.017 22.7142C89.5851 22.7142 90.8563 21.443 90.8563 19.8749C90.8563 18.3068 89.5851 17.0356 88.017 17.0356C86.4489 17.0356 85.1777 18.3068 85.1777 19.8749C85.1777 21.443 86.4489 22.7142 88.017 22.7142Z" fill="#0F4775"/>
<path d="M105.053 22.7142C106.621 22.7142 107.892 21.443 107.892 19.8749C107.892 18.3068 106.621 17.0356 105.053 17.0356C103.485 17.0356 102.214 18.3068 102.214 19.8749C102.214 21.443 103.485 22.7142 105.053 22.7142Z" fill="#0F4775"/>
<path d="M122.089 22.7142C123.657 22.7142 124.929 21.443 124.929 19.8749C124.929 18.3068 123.657 17.0356 122.089 17.0356C120.521 17.0356 119.25 18.3068 119.25 19.8749C119.25 21.443 120.521 22.7142 122.089 22.7142Z" fill="#0F4775"/>
<path d="M139.124 22.7142C140.693 22.7142 141.964 21.443 141.964 19.8749C141.964 18.3068 140.693 17.0356 139.124 17.0356C137.556 17.0356 136.285 18.3068 136.285 19.8749C136.285 21.443 137.556 22.7142 139.124 22.7142Z" fill="#0F4775"/>
<path d="M53.9457 39.75C55.5138 39.75 56.785 38.4788 56.785 36.9107C56.785 35.3426 55.5138 34.0714 53.9457 34.0714C52.3776 34.0714 51.1064 35.3426 51.1064 36.9107C51.1064 38.4788 52.3776 39.75 53.9457 39.75Z" fill="#0F4775"/>
<path d="M70.9819 39.75C72.55 39.75 73.8211 38.4788 73.8211 36.9107C73.8211 35.3426 72.55 34.0714 70.9819 34.0714C69.4138 34.0714 68.1426 35.3426 68.1426 36.9107C68.1426 38.4788 69.4138 39.75 70.9819 39.75Z" fill="#0F4775"/>
<path d="M88.017 39.7499C89.5851 39.7499 90.8563 38.4787 90.8563 36.9106C90.8563 35.3425 89.5851 34.0713 88.017 34.0713C86.4489 34.0713 85.1777 35.3425 85.1777 36.9106C85.1777 38.4787 86.4489 39.7499 88.017 39.7499Z" fill="#0F4775"/>
<path d="M105.053 39.7499C106.621 39.7499 107.892 38.4787 107.892 36.9106C107.892 35.3425 106.621 34.0713 105.053 34.0713C103.485 34.0713 102.214 35.3425 102.214 36.9106C102.214 38.4787 103.485 39.7499 105.053 39.7499Z" fill="#0F4775"/>
<path d="M122.089 39.7499C123.657 39.7499 124.929 38.4787 124.929 36.9106C124.929 35.3425 123.657 34.0713 122.089 34.0713C120.521 34.0713 119.25 35.3425 119.25 36.9106C119.25 38.4787 120.521 39.7499 122.089 39.7499Z" fill="#0F4775"/>
<path d="M139.124 39.7499C140.693 39.7499 141.964 38.4787 141.964 36.9106C141.964 35.3425 140.693 34.0713 139.124 34.0713C137.556 34.0713 136.285 35.3425 136.285 36.9106C136.285 38.4787 137.556 39.7499 139.124 39.7499Z" fill="#0F4775"/>
<path d="M53.9457 56.7857C55.5138 56.7857 56.785 55.5146 56.785 53.9465C56.785 52.3784 55.5138 51.1072 53.9457 51.1072C52.3776 51.1072 51.1064 52.3784 51.1064 53.9465C51.1064 55.5146 52.3776 56.7857 53.9457 56.7857Z" fill="#0F4775"/>
<path d="M70.9819 56.7857C72.55 56.7857 73.8211 55.5146 73.8211 53.9465C73.8211 52.3784 72.55 51.1072 70.9819 51.1072C69.4138 51.1072 68.1426 52.3784 68.1426 53.9465C68.1426 55.5146 69.4138 56.7857 70.9819 56.7857Z" fill="#0F4775"/>
<path d="M88.017 56.786C89.5851 56.786 90.8563 55.5148 90.8563 53.9467C90.8563 52.3786 89.5851 51.1074 88.017 51.1074C86.4489 51.1074 85.1777 52.3786 85.1777 53.9467C85.1777 55.5148 86.4489 56.786 88.017 56.786Z" fill="#0F4775"/>
<path d="M105.053 56.786C106.621 56.786 107.892 55.5148 107.892 53.9467C107.892 52.3786 106.621 51.1074 105.053 51.1074C103.485 51.1074 102.214 52.3786 102.214 53.9467C102.214 55.5148 103.485 56.786 105.053 56.786Z" fill="#0F4775"/>
<path d="M122.089 56.786C123.657 56.786 124.929 55.5148 124.929 53.9467C124.929 52.3786 123.657 51.1074 122.089 51.1074C120.521 51.1074 119.25 52.3786 119.25 53.9467C119.25 55.5148 120.521 56.786 122.089 56.786Z" fill="#0F4775"/>
<path d="M139.124 56.786C140.693 56.786 141.964 55.5148 141.964 53.9467C141.964 52.3786 140.693 51.1074 139.124 51.1074C137.556 51.1074 136.285 52.3786 136.285 53.9467C136.285 55.5148 137.556 56.786 139.124 56.786Z" fill="#0F4775"/>
<path d="M53.9457 73.8214C55.5138 73.8214 56.785 72.5502 56.785 70.9821C56.785 69.414 55.5138 68.1428 53.9457 68.1428C52.3776 68.1428 51.1064 69.414 51.1064 70.9821C51.1064 72.5502 52.3776 73.8214 53.9457 73.8214Z" fill="#0F4775"/>
<path d="M70.9819 73.8214C72.55 73.8214 73.8211 72.5502 73.8211 70.9821C73.8211 69.414 72.55 68.1428 70.9819 68.1428C69.4138 68.1428 68.1426 69.414 68.1426 70.9821C68.1426 72.5502 69.4138 73.8214 70.9819 73.8214Z" fill="#0F4775"/>
<path d="M88.017 73.8211C89.5851 73.8211 90.8563 72.55 90.8563 70.9819C90.8563 69.4138 89.5851 68.1426 88.017 68.1426C86.4489 68.1426 85.1777 69.4138 85.1777 70.9819C85.1777 72.55 86.4489 73.8211 88.017 73.8211Z" fill="#0F4775"/>
<path d="M105.053 73.8211C106.621 73.8211 107.892 72.55 107.892 70.9819C107.892 69.4138 106.621 68.1426 105.053 68.1426C103.485 68.1426 102.214 69.4138 102.214 70.9819C102.214 72.55 103.485 73.8211 105.053 73.8211Z" fill="#0F4775"/>
<path d="M122.089 73.8211C123.657 73.8211 124.929 72.55 124.929 70.9819C124.929 69.4138 123.657 68.1426 122.089 68.1426C120.521 68.1426 119.25 69.4138 119.25 70.9819C119.25 72.55 120.521 73.8211 122.089 73.8211Z" fill="#0F4775"/>
<path d="M139.124 73.8211C140.693 73.8211 141.964 72.55 141.964 70.9819C141.964 69.4138 140.693 68.1426 139.124 68.1426C137.556 68.1426 136.285 69.4138 136.285 70.9819C136.285 72.55 137.556 73.8211 139.124 73.8211Z" fill="#0F4775"/>
<path d="M53.9457 90.8572C55.5138 90.8572 56.785 89.586 56.785 88.0179C56.785 86.4498 55.5138 85.1786 53.9457 85.1786C52.3776 85.1786 51.1064 86.4498 51.1064 88.0179C51.1064 89.586 52.3776 90.8572 53.9457 90.8572Z" fill="#0F4775"/>
<path d="M70.9819 90.8572C72.55 90.8572 73.8211 89.586 73.8211 88.0179C73.8211 86.4498 72.55 85.1786 70.9819 85.1786C69.4138 85.1786 68.1426 86.4498 68.1426 88.0179C68.1426 89.586 69.4138 90.8572 70.9819 90.8572Z" fill="#0F4775"/>
<path d="M88.017 90.8573C89.5851 90.8573 90.8563 89.5861 90.8563 88.018C90.8563 86.4499 89.5851 85.1787 88.017 85.1787C86.4489 85.1787 85.1777 86.4499 85.1777 88.018C85.1777 89.5861 86.4489 90.8573 88.017 90.8573Z" fill="#0F4775"/>
<path d="M105.053 90.8573C106.621 90.8573 107.892 89.5861 107.892 88.018C107.892 86.4499 106.621 85.1787 105.053 85.1787C103.485 85.1787 102.214 86.4499 102.214 88.018C102.214 89.5861 103.485 90.8573 105.053 90.8573Z" fill="#0F4775"/>
<path d="M122.089 90.8573C123.657 90.8573 124.929 89.5861 124.929 88.018C124.929 86.4499 123.657 85.1787 122.089 85.1787C120.521 85.1787 119.25 86.4499 119.25 88.018C119.25 89.5861 120.521 90.8573 122.089 90.8573Z" fill="#0F4775"/>
<path d="M139.124 90.8573C140.693 90.8573 141.964 89.5861 141.964 88.018C141.964 86.4499 140.693 85.1787 139.124 85.1787C137.556 85.1787 136.285 86.4499 136.285 88.018C136.285 89.5861 137.556 90.8573 139.124 90.8573Z" fill="#0F4775"/>
<path d="M53.9457 107.893C55.5138 107.893 56.785 106.622 56.785 105.054C56.785 103.485 55.5138 102.214 53.9457 102.214C52.3776 102.214 51.1064 103.485 51.1064 105.054C51.1064 106.622 52.3776 107.893 53.9457 107.893Z" fill="#0F4775"/>
<path d="M70.9819 107.893C72.55 107.893 73.8211 106.622 73.8211 105.054C73.8211 103.485 72.55 102.214 70.9819 102.214C69.4138 102.214 68.1426 103.485 68.1426 105.054C68.1426 106.622 69.4138 107.893 70.9819 107.893Z" fill="#0F4775"/>
<path d="M88.017 107.893C89.5851 107.893 90.8563 106.622 90.8563 105.054C90.8563 103.486 89.5851 102.214 88.017 102.214C86.4489 102.214 85.1777 103.486 85.1777 105.054C85.1777 106.622 86.4489 107.893 88.017 107.893Z" fill="#0F4775"/>
<path d="M105.053 107.893C106.621 107.893 107.892 106.622 107.892 105.054C107.892 103.486 106.621 102.214 105.053 102.214C103.485 102.214 102.214 103.486 102.214 105.054C102.214 106.622 103.485 107.893 105.053 107.893Z" fill="#0F4775"/>
<path d="M122.089 107.893C123.657 107.893 124.929 106.622 124.929 105.054C124.929 103.486 123.657 102.214 122.089 102.214C120.521 102.214 119.25 103.486 119.25 105.054C119.25 106.622 120.521 107.893 122.089 107.893Z" fill="#0F4775"/>
<path d="M139.124 107.893C140.693 107.893 141.964 106.622 141.964 105.054C141.964 103.486 140.693 102.214 139.124 102.214C137.556 102.214 136.285 103.486 136.285 105.054C136.285 106.622 137.556 107.893 139.124 107.893Z" fill="#0F4775"/>
<path d="M53.9457 124.929C55.5138 124.929 56.785 123.657 56.785 122.089C56.785 120.521 55.5138 119.25 53.9457 119.25C52.3776 119.25 51.1064 120.521 51.1064 122.089C51.1064 123.657 52.3776 124.929 53.9457 124.929Z" fill="#0F4775"/>
<path d="M70.9819 124.929C72.55 124.929 73.8211 123.657 73.8211 122.089C73.8211 120.521 72.55 119.25 70.9819 119.25C69.4138 119.25 68.1426 120.521 68.1426 122.089C68.1426 123.657 69.4138 124.929 70.9819 124.929Z" fill="#0F4775"/>
<path d="M88.017 124.929C89.5851 124.929 90.8563 123.657 90.8563 122.089C90.8563 120.521 89.5851 119.25 88.017 119.25C86.4489 119.25 85.1777 120.521 85.1777 122.089C85.1777 123.657 86.4489 124.929 88.017 124.929Z" fill="#0F4775"/>
<path d="M105.053 124.929C106.621 124.929 107.892 123.657 107.892 122.089C107.892 120.521 106.621 119.25 105.053 119.25C103.485 119.25 102.214 120.521 102.214 122.089C102.214 123.657 103.485 124.929 105.053 124.929Z" fill="#0F4775"/>
<path d="M122.089 124.929C123.657 124.929 124.929 123.657 124.929 122.089C124.929 120.521 123.657 119.25 122.089 119.25C120.521 119.25 119.25 120.521 119.25 122.089C119.25 123.657 120.521 124.929 122.089 124.929Z" fill="#0F4775"/>
<path d="M139.124 124.929C140.693 124.929 141.964 123.657 141.964 122.089C141.964 120.521 140.693 119.25 139.124 119.25C137.556 119.25 136.285 120.521 136.285 122.089C136.285 123.657 137.556 124.929 139.124 124.929Z" fill="#0F4775"/>
</svg>
