<svg width="84" height="85" viewBox="0 0 84 85" fill="none" xmlns="http://www.w3.org/2000/svg">
<path fill-rule="evenodd" clip-rule="evenodd" d="M23.6308 1.58914C20.3389 3.29247 20.0704 3.54269 20.4222 4.58056C20.5545 4.97113 21.1042 5.32211 23.6308 6.62939L26.6797 8.20676L43.4605 8.21464C62.496 8.22338 61.2585 8.31164 62.5543 6.85338C64.0731 5.14422 64.0731 3.07431 62.5543 1.36515C61.2585 -0.0931117 62.496 -0.00485165 43.4605 0.00388866L26.6797 0.011772L23.6308 1.58914ZM28.4582 4.10926V5.48029H27.9529C27.4808 5.48029 24.9012 4.32126 24.9012 4.10909C24.9012 3.88904 27.4006 2.75777 27.9077 2.74835L28.4582 2.73824V4.10926ZM60.5634 3.15897C60.8256 3.42409 60.9792 3.77542 60.9792 4.10926C60.9792 4.44311 60.8256 4.79444 60.5634 5.05956L60.1477 5.48029H45.6579H31.1682V4.10926V2.73824H45.6579H60.1477L60.5634 3.15897ZM3.15526 9.87427C2.57497 10.0546 2.06073 10.4018 1.43317 11.0367C-0.119707 12.6079 0.00224726 10.1019 0.00224726 40.4415C0.00224726 70.7493 -0.116319 68.2827 1.41369 69.8213C2.94777 71.3643 2.13627 71.2897 17.3832 71.2897C24.6856 71.2897 30.6601 71.35 30.6601 71.4237C30.6601 71.5485 29.8896 74.3291 29.1182 76.988L28.7825 78.1449H25.6485C22.5468 78.1449 22.5102 78.1491 22.0988 78.5656C21.694 78.975 21.6829 79.055 21.6829 81.5724C21.6829 84.0898 21.694 84.1698 22.0988 84.5793L22.5144 85H42.0086H61.5028L61.9184 84.5793C62.3232 84.1698 62.3343 84.0898 62.3343 81.5724C62.3343 79.055 62.3232 78.975 61.9184 78.5656C61.507 78.1491 61.4704 78.1449 58.3687 78.1449H55.2347L54.899 76.988C54.1361 74.3581 53.3571 71.5492 53.3571 71.4277C53.3571 71.356 59.4739 71.2765 66.9499 71.2508L80.5426 71.204L81.3895 70.7487C82.3919 70.2098 82.9849 69.6001 83.5305 68.5476L83.9303 67.7764L83.9748 40.7843C84.0256 10.016 84.1494 12.6302 82.5656 11.0215C81.024 9.45559 84.9303 9.59184 41.9354 9.60538C8.70417 9.61583 3.8797 9.64925 3.15526 9.87427ZM80.6665 12.9814L81.2202 13.5416L81.2644 36.9315L81.3084 60.3215H42.0086H2.70878L2.75282 36.942L2.79702 13.5627L3.22048 13.1017C3.45337 12.8482 3.79637 12.5766 3.98269 12.4984C4.16901 12.4201 21.3745 12.3706 42.2171 12.3886L80.1128 12.4211L80.6665 12.9814ZM5.83825 18.2403C5.42581 18.6574 5.42242 18.6874 5.42242 21.9326C5.42242 26.3378 5.1338 26.0457 9.48755 26.0457C13.8413 26.0457 13.5527 26.3378 13.5527 21.9326C13.5527 17.5275 13.8413 17.8196 9.48755 17.8196C6.28016 17.8196 6.25052 17.823 5.83825 18.2403ZM70.8803 18.2403C70.4679 18.6574 70.4645 18.6874 70.4645 21.9326C70.4645 26.3378 70.1759 26.0457 74.5296 26.0457C78.8834 26.0457 78.5948 26.3378 78.5948 21.9326C78.5948 17.5275 78.8834 17.8196 74.5296 17.8196C71.3223 17.8196 71.2926 17.823 70.8803 18.2403ZM10.8426 21.9326V23.3037H9.48755H8.13251V21.9326V20.5616H9.48755H10.8426V21.9326ZM75.8847 21.9326V23.3037H74.5296H73.1746V21.9326V20.5616H74.5296H75.8847V21.9326ZM27.5562 23.571C24.256 24.3203 21.5193 26.5069 20.0723 29.5506C17.3299 35.3197 20.01 42.1337 25.9495 44.4933L27.0825 44.9433L25.7377 47.6604C24.9981 49.1548 24.393 50.5746 24.393 50.8158C24.393 51.0567 24.5802 51.4432 24.8089 51.6746L25.2245 52.0953H32.5233H39.8221L40.2377 51.6746C40.4664 51.4432 40.6536 51.0581 40.6536 50.8187C40.6536 50.5793 39.7999 48.6538 38.7565 46.5401L36.8594 42.6965L37.5749 41.9111C38.6894 40.6876 39.5992 39.1396 40.0922 37.6272C40.4755 36.4512 40.5436 35.9459 40.5436 34.2719C40.5436 32.5979 40.4755 32.0927 40.0922 30.9167C39.3044 28.5 37.8796 26.6005 35.7984 25.1919C33.4566 23.6074 30.2096 22.9686 27.5562 23.571ZM31.754 26.3081C36.1045 27.4546 38.7882 31.9472 37.6841 36.2356C37.5415 36.7898 37.1914 37.6861 36.9062 38.2277C36.3642 39.2566 35.5749 40.1358 35.4571 39.8417C35.4194 39.7475 34.9534 38.822 34.4217 37.7852C33.3722 35.7387 32.9957 35.4128 32.0575 35.7384C31.6688 35.8733 31.3254 36.4335 29.9826 39.1238L28.3735 42.3474L27.8653 42.2474C26.833 42.0438 25.2054 41.118 24.2374 40.1838C22.1154 38.1358 21.2244 35.0971 21.9357 32.3341C23.0756 27.9057 27.5037 25.188 31.754 26.3081ZM46.1335 26.9873C45.8452 27.1098 45.5393 27.4181 45.4299 27.6961C45.2458 28.164 41.7071 40.2727 40.9998 42.8551C40.7027 43.9399 40.692 44.1325 40.9051 44.5498C41.0375 44.8086 41.3589 45.1061 41.6195 45.2108C42.0313 45.3764 55.451 49.3812 57.099 49.8304C57.8987 50.0483 58.6533 49.7335 58.9129 49.0739C59.095 48.6112 62.6324 36.5096 63.3292 33.9653C63.6036 32.9634 63.6188 32.7149 63.4327 32.2671C63.1579 31.6063 63.2814 31.6515 55.3897 29.3187C46.1422 26.5852 46.7302 26.7333 46.1335 26.9873ZM5.83825 27.8375C5.42581 28.2546 5.42242 28.2846 5.42242 31.5299C5.42242 35.935 5.1338 35.6429 9.48755 35.6429C13.8413 35.6429 13.5527 35.935 13.5527 31.5299C13.5527 27.1247 13.8413 27.4168 9.48755 27.4168C6.28016 27.4168 6.25052 27.4202 5.83825 27.8375ZM70.8803 27.8375C70.4679 28.2546 70.4645 28.2846 70.4645 31.5299C70.4645 35.935 70.1759 35.6429 74.5296 35.6429C78.8834 35.6429 78.5948 35.935 78.5948 31.5299C78.5948 27.1247 78.8834 27.4168 74.5296 27.4168C71.3223 27.4168 71.2926 27.4202 70.8803 27.8375ZM54.0839 31.8041C57.4571 32.803 60.2871 33.6877 60.373 33.7699C60.5281 33.9184 57.0191 46.3694 56.7349 46.6787C56.5931 46.8331 44.2676 43.2808 43.9714 43.0001C43.8797 42.9133 44.5281 40.3912 45.5637 36.8063C47.5639 29.882 47.5299 29.9874 47.7702 29.9874C47.8695 29.9874 50.7107 30.8049 54.0839 31.8041ZM10.8426 31.5299V32.9009H9.48755H8.13251V31.5299V30.1588H9.48755H10.8426V31.5299ZM75.8847 31.5299V32.9009H74.5296H73.1746V31.5299V30.1588H74.5296H75.8847V31.5299ZM5.83825 37.4347C5.42581 37.8518 5.42242 37.8818 5.42242 41.1271C5.42242 45.5322 5.1338 45.2401 9.48755 45.2401C13.8413 45.2401 13.5527 45.5322 13.5527 41.1271C13.5527 36.7219 13.8413 37.014 9.48755 37.014C6.28016 37.014 6.25052 37.0174 5.83825 37.4347ZM70.8803 37.4347C70.4679 37.8518 70.4645 37.8818 70.4645 41.1271C70.4645 45.5322 70.1759 45.2401 74.5296 45.2401C77.737 45.2401 77.7667 45.2367 78.1789 44.8194C78.5914 44.4023 78.5948 44.3723 78.5948 41.1271C78.5948 36.7219 78.8834 37.014 74.5296 37.014C71.3223 37.014 71.2926 37.0174 70.8803 37.4347ZM10.8426 41.1271V42.4981H9.48755H8.13251V41.1271V39.756H9.48755H10.8426V41.1271ZM75.8847 41.1271V42.4981H74.5296H73.1746V41.1271V39.756H74.5296H75.8847V41.1271ZM32.9154 40.8758C33.0724 41.209 33.2008 41.5486 33.2008 41.6309C33.2008 41.7869 31.6667 42.3742 31.5549 42.2609C31.4682 42.1732 32.3976 40.2702 32.5272 40.2702C32.5838 40.2702 32.7584 40.5427 32.9154 40.8758ZM35.8262 46.7826L37.0988 49.3532H32.5231H27.9475L28.956 47.3176L29.9645 45.282L31.0321 45.1661C31.6193 45.1024 32.5953 44.8689 33.2008 44.6477C33.8064 44.4263 34.3585 44.2376 34.4278 44.2285C34.4971 44.2194 35.1263 45.3687 35.8262 46.7826ZM5.83825 47.0319C5.42581 47.449 5.42242 47.479 5.42242 50.7243C5.42242 55.1294 5.1338 54.8374 9.48755 54.8374C13.8413 54.8374 13.5527 55.1294 13.5527 50.7243C13.5527 46.3191 13.8413 46.6112 9.48755 46.6112C6.28016 46.6112 6.25052 46.6146 5.83825 47.0319ZM70.8803 47.0319C70.4679 47.449 70.4645 47.479 70.4645 50.7243C70.4645 55.1294 70.1759 54.8374 74.5296 54.8374C77.737 54.8374 77.7667 54.8339 78.1789 54.4166C78.5914 53.9995 78.5948 53.9695 78.5948 50.7243C78.5948 46.3191 78.8834 46.6112 74.5296 46.6112C71.3223 46.6112 71.2926 46.6146 70.8803 47.0319ZM10.8426 50.7243V52.0953H9.48755H8.13251V50.7243V49.3532H9.48755H10.8426V50.7243ZM75.8847 50.7243V52.0953H74.5296H73.1746V50.7243V49.3532H74.5296H75.8847V50.7243ZM81.2764 65.203L81.2202 67.3423L80.6665 67.9022L80.1128 68.462H42.0086H3.90443L3.35073 67.9022L2.79702 67.3423L2.74079 65.203L2.68473 63.0635H42.0086H81.3325L81.2764 65.203ZM50.7989 72.4465C51.5703 75.1055 52.3408 77.8861 52.3408 78.0108C52.3408 78.0845 47.6913 78.1449 42.0086 78.1449C36.3259 78.1449 31.6764 78.0845 31.6764 78.0108C31.6764 77.8861 32.4469 75.1055 33.2183 72.4465L33.554 71.2897H42.0086H50.4632L50.7989 72.4465ZM59.6242 81.5724V82.2579H42.0086H24.393V81.5724V80.8869H42.0086H59.6242V81.5724Z" fill="#6F6F6F"/>
</svg>
