<svg width="87" height="85" viewBox="0 0 87 85" fill="none" xmlns="http://www.w3.org/2000/svg">
<path fill-rule="evenodd" clip-rule="evenodd" d="M58.7001 0.184835C56.9426 0.717267 55.9024 2.21783 55.9024 4.22039C55.9024 6.3173 54.6438 6.79812 52.9365 5.35348C51.3341 3.99714 50.1899 3.73632 48.6529 4.37649C47.6072 4.8122 43.1013 9.29101 42.5792 10.4135C41.8674 11.9443 42.171 13.3177 43.5642 14.8692C44.9696 16.4344 44.3829 17.8585 42.3292 17.8671C40.9034 17.8732 39.5929 18.4648 38.928 19.4025C38.4334 20.1003 38.4102 20.2967 38.3463 24.2986C38.2804 28.4326 38.2843 28.4756 38.8261 29.4057C39.5049 30.5712 40.7804 31.2487 42.2955 31.2487C44.5537 31.2487 45.005 32.6109 43.3631 34.471C42.6558 35.2722 42.3751 35.7958 42.268 36.513C42.0217 38.1662 42.4206 38.8772 45.1526 41.6532C48.1628 44.7117 49.1089 45.2476 50.7849 44.843C51.4723 44.6772 52.203 44.2834 52.82 43.746C54.5586 42.232 55.9024 42.715 55.9024 44.8538C55.9024 46.4563 56.5503 47.7314 57.7123 48.4165C58.5935 48.936 58.7493 48.953 62.5738 48.9498C66.2646 48.9464 66.5805 48.9144 67.3672 48.464C68.498 47.8165 69.2074 46.4524 69.2074 44.925C69.2074 43.5309 69.6922 42.9078 70.7768 42.9078C71.2922 42.9078 71.6611 43.0913 72.118 43.5748C73.2815 44.8063 74.6425 45.2383 76.1101 44.8424C76.8599 44.6403 77.5342 44.1039 79.5877 42.0763C81.0544 40.6282 82.3042 39.1948 82.5336 38.6976C83.2701 37.1016 82.9682 35.6669 81.5675 34.1071C80.7473 33.1936 80.5984 32.4662 81.0924 31.7866C81.3141 31.4815 81.775 31.3424 82.9111 31.2377C84.7386 31.0691 85.8923 30.4022 86.4998 29.1628C86.8297 28.4903 86.9206 27.7296 86.9827 25.1279C87.0646 21.6881 86.8689 20.3747 86.1153 19.3098C85.5129 18.4585 84.1592 17.873 82.7806 17.8671C80.5984 17.8578 80.1452 16.4547 81.7407 14.6471C82.8023 13.4444 83.0521 12.6629 82.8364 11.2169C82.7012 10.3088 82.4613 9.99207 80.0018 7.47176C77.2016 4.60233 76.4106 4.04421 75.144 4.04421C74.0603 4.04421 73.3333 4.37606 72.2832 5.34981C70.618 6.8942 69.2074 6.34105 69.2074 4.14352C69.2074 2.60194 68.6132 1.4194 67.4488 0.643857C66.5745 0.0615511 66.4865 0.0490286 63 0.00476732C61.0049 -0.0207099 59.1169 0.0583126 58.7001 0.184835ZM66.1601 3.22375C66.3018 3.36625 66.4177 3.99152 66.4177 4.61313C66.4177 6.07505 66.6921 6.77222 67.6634 7.77792C69.3746 9.54988 71.7759 9.55442 73.7511 7.78936C74.3288 7.27334 74.9172 6.85102 75.059 6.85102C75.4 6.85102 80.1518 11.6254 80.1518 11.9681C80.1518 12.1144 79.7295 12.713 79.2132 13.2976C77.987 14.6868 77.6389 15.9995 78.0945 17.5163C78.6819 19.4715 80.3128 20.6692 82.3884 20.6692C82.9995 20.6692 83.6154 20.7858 83.7571 20.9283C83.9356 21.1079 84.0146 22.2317 84.0146 24.5912C84.0146 28.4732 84.0296 28.4419 82.165 28.4419C80.7991 28.4419 79.4035 29.1475 78.7228 30.1821C77.4752 32.0793 77.6477 34.04 79.2192 35.8202C79.7321 36.4014 80.1518 36.9904 80.1518 37.1292C80.1518 37.2678 79.046 38.4942 77.6943 39.854C75.4305 42.1316 75.2045 42.3026 74.8288 42.0234C74.6043 41.8568 74.0054 41.4042 73.4978 41.018C71.7665 39.7005 70.0615 39.6096 68.2894 40.7403C67.1224 41.485 66.4177 42.8199 66.4177 44.2855C66.4177 46.1637 66.4533 46.1464 62.5549 46.1464C58.6566 46.1464 58.6922 46.1637 58.6922 44.2855C58.6922 41.9986 57.1132 40.3089 54.82 40.142C53.1004 40.017 52.6498 40.1681 51.3922 41.2917C50.7963 41.8244 50.1858 42.2601 50.0356 42.2601C49.7017 42.2601 44.958 37.457 44.958 37.1186C44.958 36.9856 45.3885 36.3891 45.9147 35.7932C47.4141 34.0946 47.6385 32.5017 46.6527 30.5574C46.034 29.3373 44.8127 28.6209 43.0749 28.4583C42.2811 28.3841 41.5111 28.2472 41.3635 28.1539C41.1674 28.0302 41.0953 27.0672 41.0953 24.5692C41.0953 22.097 41.1693 21.0939 41.3635 20.9363C41.5111 20.8167 42.2734 20.6793 43.0575 20.6312C44.1693 20.563 44.6691 20.4142 45.3267 19.9558C47.7447 18.2698 47.8327 14.8755 45.5149 12.697C45.2086 12.4089 44.958 12.0784 44.958 11.962C44.958 11.6446 49.7203 6.85102 50.0356 6.85102C50.1858 6.85102 50.7811 7.27334 51.3588 7.78936C53.1281 9.37046 55.0769 9.54405 56.9625 8.28876C57.9909 7.6039 58.6922 6.19984 58.6922 4.82558C58.6922 2.94955 58.6611 2.96466 62.5195 2.96466C64.8646 2.96466 65.9816 3.04412 66.1601 3.22375ZM59.8431 9.23185C56.7642 9.78911 54.1247 11.2275 51.7178 13.6599C49.0482 16.3577 47.7692 18.965 47.2686 22.7307C46.5271 28.3048 49.2291 34.2382 53.9378 37.3764C60.26 41.5903 68.219 40.7705 73.4993 35.362C75.3979 33.4171 76.3125 31.9407 77.2157 29.3619C77.8312 27.6057 77.8784 27.262 77.8773 24.5556C77.8763 22.0026 77.8078 21.4352 77.3258 19.9854C76.4661 17.401 75.341 15.575 73.4109 13.6332C70.4555 10.6599 67.2574 9.24243 63.1987 9.10727C61.9594 9.06603 60.4493 9.12217 59.8431 9.23185ZM65.0228 12.1406C69.6506 13.1148 73.3292 16.5613 74.7019 21.209C75.2573 23.0897 75.2234 26.1749 74.626 28.1181C72.7933 34.0778 66.9503 37.905 60.9633 37.067C57.911 36.64 55.4786 35.3633 53.3453 33.0691C51.1083 30.663 50.006 27.705 50.0521 24.2317C50.1551 16.4667 57.478 10.5523 65.0228 12.1406ZM59.2263 15.1175C56.1134 16.3098 53.8889 18.7111 52.9951 21.8437C52.7221 22.8011 52.6556 23.6325 52.733 25.1219C52.8219 26.8314 52.9446 27.346 53.5891 28.7114C54.6189 30.8931 56.2393 32.5321 58.3756 33.5529C59.8283 34.2471 60.2639 34.3507 62.0927 34.4368C63.8245 34.5185 64.3893 34.4578 65.535 34.0668C68.8611 32.9322 71.1832 30.5326 72.1143 27.2684C72.689 25.2536 72.4708 22.2894 71.6075 20.3874C70.7055 18.4009 68.6868 16.3655 66.6977 15.4375C65.3854 14.8254 64.9979 14.7496 62.8768 14.6898C60.8354 14.6324 60.342 14.6902 59.2263 15.1175ZM65.6666 18.1312C66.9621 18.8055 68.3443 20.2136 69.0059 21.5328C69.7291 22.9749 69.8216 25.3618 69.2169 26.9742C68.6117 28.5879 67.1492 30.2039 65.6028 30.968C64.5539 31.4862 64.1185 31.5726 62.5549 31.5726C60.9961 31.5726 60.5547 31.4856 59.5201 30.9745C58.1063 30.2758 56.6992 28.8282 56.0464 27.4004C55.6895 26.6203 55.5842 25.9736 55.5827 24.5556C55.5807 22.9801 55.6655 22.5461 56.1814 21.489C56.9157 19.9845 58.5263 18.4764 60.0446 17.8717C61.6392 17.2365 64.1721 17.3535 65.6666 18.1312ZM27.0392 19.1354C25.2788 19.9554 24.3567 21.5266 24.3567 23.7064C24.3567 25.5246 23.8906 26.4439 22.7005 26.9735C21.5288 27.4952 20.689 27.2713 19.6201 26.1524C17.8289 24.2777 15.5776 23.7273 13.7342 24.7136C12.5316 25.357 6.21558 31.8017 5.80226 32.8072C5.06834 34.5921 5.50633 36.3496 7.13684 38.1623C8.47764 39.653 8.76198 40.6468 8.17463 41.7894C7.69908 42.7148 6.81645 43.1237 5.29517 43.1237C2.99126 43.1237 1.44853 43.9854 0.4631 45.8226C0.026181 46.6374 0 46.9727 0 51.7659C0 56.7895 0.00600878 56.8573 0.548294 57.9174C0.874911 58.556 1.45818 59.245 1.99189 59.6224C2.758 60.1639 3.15972 60.2757 4.77005 60.3945C6.90765 60.5523 7.4671 60.7846 8.0581 61.7597C8.82614 63.0271 8.52356 64.2012 7.07375 65.5782C5.61514 66.9637 5.16212 68.6638 5.72866 70.6271C5.93167 71.3303 6.6819 72.2287 9.32315 74.9316C11.159 76.8103 12.9732 78.5416 13.3548 78.7791C14.2546 79.3392 16.1111 79.5314 17.1836 79.1753C17.6394 79.024 18.4982 78.4421 19.0922 77.8825C20.8326 76.2424 21.7056 75.9995 23.0018 76.7947C23.9694 77.3883 24.2018 77.9522 24.3571 80.0826C24.5217 82.3382 25.0818 83.3637 26.6589 84.2965C27.6774 84.8989 27.707 84.9025 32.1069 84.9774C37.7312 85.0731 38.6077 84.9133 40.0218 83.533C41.1841 82.3984 41.5172 81.5093 41.5309 79.5044C41.5356 78.7919 41.6635 77.9844 41.8148 77.7102C42.2281 76.9607 43.25 76.3767 44.1509 76.3752C44.8161 76.3739 45.1606 76.5624 46.1634 77.4761C48.233 79.3619 50.0866 79.8472 51.9324 78.9868C52.4646 78.7385 54.1434 77.2026 56.3509 74.9433C59.5325 71.6872 59.9383 71.1891 60.1669 70.2591C60.6175 68.4257 60.1862 67.1527 58.4675 65.2432C57.8829 64.5937 57.3934 63.8447 57.3799 63.5787C57.2673 61.3752 58.3598 60.3964 60.9328 60.3964C63.9416 60.3964 65.7739 58.4848 65.7739 55.3452C65.7739 54.0956 65.7151 53.9038 65.2084 53.5031C64.5011 52.9433 64.2569 52.9433 63.5496 53.5031C63.0766 53.8773 62.9841 54.123 62.9841 55.0043C62.9841 56.2588 62.6753 57.028 62.0485 57.3355C61.7959 57.4592 60.865 57.6002 59.9798 57.6488C58.151 57.7494 57.0329 58.2255 55.9801 59.3519C53.8474 61.6342 53.9367 64.4911 56.2215 67.0674C58.0864 69.1701 58.0542 69.2774 54.4539 72.9621C52.8311 74.6231 51.2307 76.125 50.8974 76.2994C50.0381 76.7498 49.2433 76.5006 48.2649 75.4746C45.9338 73.0299 42.3869 72.9166 40.1937 75.2169C39.1486 76.3128 38.7347 77.3703 38.7347 78.9437C38.7347 80.381 38.4707 81.2731 37.9216 81.693C37.6471 81.9027 36.3741 81.9752 32.8773 81.9804L28.1999 81.9873L27.6733 81.4573C27.2259 81.0073 27.1463 80.7225 27.1452 79.5681C27.1445 78.8206 27.0441 77.8471 26.922 77.4047C26.3267 75.2475 24.0556 73.5669 21.7363 73.5669C20.1114 73.5669 19.3347 73.911 17.5817 75.4071C15.5565 77.1356 15.5707 77.1413 11.5346 73.0655C8.97765 70.4835 8.26197 69.6367 8.26197 69.1934C8.26197 68.8177 8.63365 68.2026 9.36264 67.372C10.8062 65.7274 11.2562 64.7127 11.2595 63.0953C11.2661 59.8113 8.86799 57.5896 5.31685 57.5896C4.15223 57.5896 3.87283 57.5115 3.42389 57.0596L2.89705 56.5297V51.8076V47.0854L3.43376 46.578C3.88034 46.1559 4.28657 46.0471 5.84797 45.9308C7.99093 45.771 8.71863 45.4586 9.82896 44.222C10.8629 43.0706 11.2668 42.0403 11.2642 40.5605C11.2616 39.0361 10.5736 37.5036 9.37015 36.342C8.31262 35.3214 8.07291 34.4882 8.60125 33.6689C8.80876 33.3471 10.3039 31.7481 11.9238 30.1152C15.5196 26.491 15.6319 26.4566 17.7263 28.3368C19.8077 30.2052 21.9983 30.6219 24.0919 29.5472C25.9862 28.5749 26.9574 26.9567 27.0877 24.5556C27.2433 21.6853 27.4739 21.5328 31.6631 21.5328C34.3713 21.5328 34.6983 21.4916 35.0865 21.101C35.3226 20.8635 35.5157 20.4263 35.5157 20.1294C35.5157 19.8325 35.3226 19.3953 35.0865 19.1578C34.6932 18.7621 34.3747 18.7264 31.2775 18.7308C28.4465 18.7346 27.7581 18.8005 27.0392 19.1354ZM29.2416 31.3737C16.013 33.7805 8.51519 48.2496 14.1445 60.5081C17.2147 67.1937 23.8574 71.9068 30.9796 72.453C39.2821 73.0899 46.6456 69.2753 50.7482 62.2116C52.3006 59.5391 53.2223 56.5546 53.4612 53.4284C53.6283 51.2397 53.324 50.4646 52.297 50.4646C51.1339 50.4646 50.8298 50.917 50.6699 52.8835C50.4577 55.4959 49.9886 57.2096 48.8199 59.6408C45.7825 65.9591 39.8703 69.6645 32.8071 69.6768C24.9172 69.6905 17.9637 64.3579 15.7213 56.5746C15.31 55.1464 15.2383 54.3989 15.2486 51.6521C15.2598 48.7121 15.316 48.2442 15.8585 46.5783C17.4555 41.6715 20.6393 37.9557 25.1078 35.783C27.6456 34.5489 29.3394 34.1007 32.0931 33.9344C34.7919 33.7716 34.9726 33.7233 35.2593 33.09C35.5591 32.4282 35.2949 31.592 34.6818 31.2619C34.1003 30.9486 31.256 31.0071 29.2416 31.3737ZM30.0435 37.5155C28.4613 37.8359 26.4068 38.7064 25.0623 39.626C17.0218 45.1254 16.1308 55.8939 23.1694 62.5072C25.8894 65.0629 28.9995 66.2875 32.8333 66.3126C35.4726 66.3298 36.7705 66.0267 39.3268 64.796C40.9416 64.0185 41.6247 63.5267 42.9749 62.1686C45.6608 59.4672 47.0321 56.5681 47.2613 53.1063C47.3995 51.0186 47.1147 50.4646 45.9026 50.4646C45.0121 50.4646 44.5299 51.105 44.5256 52.294C44.5082 57.0654 40.4676 62.0207 35.6426 63.1879C34.1385 63.5517 31.1199 63.4973 29.7216 63.0815C25.8728 61.9363 22.82 58.868 21.6946 55.0134C21.2438 53.4688 21.2457 50.2569 21.6983 48.7227C22.3043 46.6692 23.2764 45.0295 24.7926 43.5042C27.1742 41.108 29.7781 40.1051 33.6258 40.1023C35.0878 40.1012 35.3151 40.0462 35.6108 39.621C36.0816 38.9448 36.0271 38.4368 35.4181 37.8242C34.9303 37.3333 34.7445 37.2959 32.8966 37.3179C31.7996 37.3309 30.5156 37.4198 30.0435 37.5155Z" fill="#6F6F6F"/>
</svg>
