<svg width="125" height="57" viewBox="0 0 125 57" fill="none" xmlns="http://www.w3.org/2000/svg">
<path d="M10.7449 47.5028V44.3596H10.9643V47.5028H10.7449Z" fill="#56565D"/>
<path d="M17.6658 47.5028H17.4449L15.5825 44.7115H15.5651C15.5825 45.0444 15.5904 45.2953 15.5904 45.4642V47.5028H15.3789V44.3596H15.5983L17.4607 47.1462H17.4733C17.4607 46.889 17.4528 46.6429 17.4528 46.4109V44.3596H17.6658V47.5028Z" fill="#56565D"/>
<path d="M22.9009 47.5028H22.68V44.5647H21.6572V44.3596H23.9221V44.5647H22.9009V47.5028Z" fill="#56565D"/>
<path d="M29.6318 47.5031H27.9131V44.3599H29.6318V44.5618H28.1325V45.75H29.5529V45.9536H28.1325V47.3011H29.6318V47.5031Z" fill="#56565D"/>
<path d="M34.0908 46.1332V47.5028H33.8699V44.3596H34.618C35.0078 44.3596 35.2966 44.4306 35.4829 44.5758C35.5781 44.6538 35.6532 44.7536 35.7018 44.8668C35.7505 44.9799 35.7712 45.1031 35.7622 45.2259C35.7684 45.4172 35.71 45.605 35.5965 45.7592C35.4668 45.9171 35.2888 46.0279 35.0899 46.0748L35.9437 47.506H35.6802L34.8705 46.1363L34.0908 46.1332ZM34.0908 45.9438H34.6906C34.9106 45.9586 35.1288 45.8961 35.3077 45.7671C35.3827 45.703 35.4415 45.6222 35.4796 45.5312C35.5177 45.4403 35.534 45.3416 35.5271 45.2432C35.5359 45.1454 35.5209 45.0468 35.4836 44.9559C35.4462 44.865 35.3875 44.7844 35.3124 44.721C35.1011 44.5965 34.856 44.5413 34.6117 44.5632H34.0908V45.9438Z" fill="#56565D"/>
<path d="M42.298 47.5028H42.0771L40.2147 44.7115H40.1974C40.2147 45.0444 40.2226 45.2953 40.2226 45.4642V47.5028H40.0127V44.3596H40.2321L42.0929 47.1462H42.1055C42.0929 46.889 42.0866 46.6429 42.0866 46.4109V44.3596H42.298V47.5028Z" fill="#56565D"/>
<path d="M48.4324 47.5031H46.7168V44.3599H48.4355V44.5618H46.9362V45.75H48.3566V45.9536H46.9362V47.3011H48.4355L48.4324 47.5031Z" fill="#56565D"/>
<path d="M53.4896 47.5028H53.2687V44.5647H52.2412V44.3596H54.506V44.5647H53.4849L53.4896 47.5028Z" fill="#56565D"/>
<path d="M64.9069 46.6919C64.9127 46.8125 64.8895 46.9327 64.8392 47.0426C64.789 47.1524 64.7131 47.2486 64.618 47.323C64.3959 47.4858 64.1245 47.5671 63.8494 47.5534C63.5494 47.5667 63.2495 47.5234 62.9656 47.4256V47.2063C63.2419 47.3118 63.5364 47.3611 63.8321 47.3514C64.051 47.3631 64.2674 47.3003 64.446 47.1731C64.5185 47.1195 64.5769 47.0492 64.6165 46.9681C64.6561 46.8871 64.6755 46.7978 64.6733 46.7077C64.6775 46.604 64.6512 46.5014 64.5975 46.4126C64.5345 46.3223 64.4506 46.2487 64.3529 46.198C64.1933 46.1136 64.0263 46.0439 63.8541 45.9897C63.6081 45.9217 63.3805 45.7993 63.1881 45.6315C63.1219 45.5543 63.0717 45.4648 63.0404 45.368C63.0091 45.2713 62.9974 45.1693 63.0059 45.068C63.0145 44.9667 63.0431 44.8681 63.09 44.7779C63.137 44.6877 63.2015 44.6078 63.2797 44.5428C63.484 44.3884 63.7356 44.3097 63.9915 44.3203C64.2773 44.3181 64.5605 44.375 64.8232 44.4875L64.7443 44.6769C64.5078 44.5754 64.2535 44.5218 63.9962 44.5191C63.7985 44.5075 63.6027 44.5631 63.4406 44.6769C63.3737 44.7282 63.3199 44.7948 63.284 44.8711C63.248 44.9474 63.2308 45.0312 63.2339 45.1155C63.2264 45.2145 63.2481 45.3134 63.2964 45.4001C63.3447 45.4867 63.4173 45.5574 63.5053 45.6031C63.6629 45.6895 63.8283 45.7608 63.9993 45.8161C64.1925 45.8776 64.3783 45.9602 64.5533 46.0623C64.6636 46.1294 64.7558 46.2226 64.8216 46.3337C64.8798 46.444 64.9092 46.5672 64.9069 46.6919Z" fill="#56565D"/>
<path d="M71.7409 45.9267C71.7647 46.3541 71.6317 46.7754 71.3668 47.1117C71.2327 47.2495 71.0724 47.359 70.8952 47.4337C70.7181 47.5085 70.5277 47.547 70.3354 47.547C70.1432 47.547 69.9528 47.5085 69.7757 47.4337C69.5985 47.359 69.4382 47.2495 69.304 47.1117C69.039 46.7743 68.906 46.3519 68.93 45.9236C68.9049 45.4965 69.0393 45.0753 69.3072 44.7417C69.4415 44.6046 69.6018 44.4956 69.7788 44.4213C69.9558 44.3469 70.1458 44.3086 70.3378 44.3086C70.5298 44.3086 70.7198 44.3469 70.8968 44.4213C71.0738 44.4956 71.2341 44.6046 71.3684 44.7417C71.6327 45.0782 71.7651 45.4995 71.7409 45.9267ZM69.1683 45.9267C69.1443 46.2993 69.2509 46.6687 69.4697 46.9713C69.5821 47.0881 69.7169 47.1811 69.8661 47.2446C70.0152 47.308 70.1757 47.3408 70.3378 47.3408C70.4999 47.3408 70.6604 47.308 70.8095 47.2446C70.9587 47.1811 71.0935 47.0881 71.2059 46.9713C71.4047 46.7283 71.5057 46.378 71.5057 45.9236C71.5057 45.4691 71.4047 45.1236 71.2059 44.8821C71.0932 44.7659 70.9582 44.6735 70.8091 44.6104C70.66 44.5472 70.4997 44.5147 70.3378 44.5147C70.1759 44.5147 70.0156 44.5472 69.8665 44.6104C69.7174 44.6735 69.5825 44.7659 69.4697 44.8821C69.2487 45.1836 69.1418 45.5538 69.1683 45.9267Z" fill="#56565D"/>
<path d="M75.9883 47.5031V44.3599H76.2077V47.2979H77.707V47.5031H75.9883Z" fill="#56565D"/>
<path d="M84.0865 44.3599V46.3906C84.0953 46.546 84.0719 46.7015 84.0175 46.8474C83.9632 46.9932 83.8792 47.1262 83.7708 47.238C83.6524 47.3444 83.5139 47.4263 83.3635 47.4789C83.2132 47.5314 83.0539 47.5536 82.8949 47.5441C82.7388 47.5588 82.5814 47.5388 82.434 47.4856C82.2865 47.4323 82.1527 47.3472 82.042 47.2362C81.9313 47.1253 81.8465 46.9912 81.7937 46.8437C81.7408 46.6961 81.7213 46.5387 81.7364 46.3827V44.3599H81.9574V46.3906C81.9442 46.5203 81.9601 46.6512 82.004 46.7739C82.0478 46.8967 82.1186 47.008 82.211 47.1C82.3033 47.1919 82.4151 47.262 82.5381 47.3053C82.661 47.3485 82.7921 47.3638 82.9217 47.35C83.0486 47.3637 83.177 47.349 83.2974 47.3069C83.4179 47.2648 83.5275 47.1964 83.6182 47.1066C83.7089 47.0168 83.7785 46.908 83.8218 46.7879C83.8651 46.6679 83.8811 46.5397 83.8687 46.4127V44.3614L84.0865 44.3599Z" fill="#56565D"/>
<path d="M89.2866 47.5028H89.0657V44.5647H88.043V44.3596H90.3094V44.5647H89.2866V47.5028Z" fill="#56565D"/>
<path d="M94.2988 47.5031V44.3599H94.5198V47.5031H94.2988Z" fill="#56565D"/>
<path d="M101.579 45.9267C101.602 46.354 101.469 46.7754 101.204 47.1117C101.07 47.2494 100.91 47.3589 100.733 47.4337C100.556 47.5085 100.365 47.547 100.173 47.547C99.9808 47.547 99.7905 47.5085 99.6133 47.4337C99.4362 47.3589 99.2758 47.2494 99.1417 47.1117C98.8766 46.7743 98.7436 46.3519 98.7676 45.9235C98.7425 45.4965 98.877 45.0753 99.1448 44.7417C99.2736 44.5975 99.433 44.4838 99.6113 44.409C99.7896 44.3342 99.9823 44.3002 100.175 44.3093C100.369 44.2993 100.562 44.3332 100.74 44.4083C100.919 44.4834 101.078 44.598 101.206 44.7433C101.471 45.079 101.603 45.5 101.579 45.9267ZM99.0059 45.9267C98.9827 46.2992 99.0892 46.6683 99.3074 46.9713C99.4198 47.0881 99.5546 47.181 99.7037 47.2445C99.8529 47.308 100.013 47.3408 100.175 47.3408C100.338 47.3408 100.498 47.308 100.647 47.2445C100.796 47.181 100.931 47.0881 101.044 46.9713C101.242 46.7283 101.343 46.378 101.343 45.9235C101.343 45.4691 101.242 45.1235 101.044 44.8821C100.931 44.7659 100.796 44.6735 100.647 44.6103C100.498 44.5472 100.337 44.5147 100.175 44.5147C100.014 44.5147 99.8532 44.5472 99.7041 44.6103C99.555 44.6735 99.4201 44.7659 99.3074 44.8821C99.0863 45.1836 98.9795 45.5538 99.0059 45.9267Z" fill="#56565D"/>
<path d="M108.112 47.5031H107.891L106.027 44.7117H106.01C106.027 45.0447 106.037 45.2956 106.037 45.4644V47.5031H105.825V44.3599H106.045L107.905 47.1464H107.918C107.905 46.8893 107.899 46.6431 107.899 46.4111V44.3599H108.112V47.5031Z" fill="#56565D"/>
<path d="M114.268 46.6919C114.273 46.8125 114.25 46.9327 114.2 47.0426C114.15 47.1524 114.074 47.2486 113.979 47.323C113.757 47.4858 113.485 47.5671 113.21 47.5534C112.91 47.5667 112.61 47.5234 112.326 47.4256V47.2063C112.603 47.3118 112.897 47.3611 113.193 47.3514C113.412 47.3631 113.628 47.3003 113.807 47.1731C113.879 47.1195 113.938 47.0492 113.977 46.9681C114.017 46.8871 114.036 46.7978 114.034 46.7077C114.038 46.604 114.012 46.5014 113.958 46.4126C113.895 46.3223 113.811 46.2487 113.714 46.198C113.554 46.1136 113.387 46.0439 113.215 45.9897C112.969 45.9213 112.742 45.799 112.549 45.6315C112.483 45.5543 112.433 45.4648 112.401 45.368C112.37 45.2713 112.358 45.1693 112.367 45.068C112.375 44.9667 112.404 44.8681 112.451 44.7779C112.498 44.6877 112.562 44.6078 112.64 44.5428C112.845 44.3884 113.096 44.3097 113.352 44.3203C113.638 44.3181 113.921 44.375 114.184 44.4875L114.105 44.6769C113.869 44.5754 113.614 44.5218 113.357 44.5191C113.159 44.5075 112.964 44.5631 112.801 44.6769C112.735 44.7282 112.681 44.7948 112.645 44.8711C112.609 44.9474 112.592 45.0312 112.595 45.1155C112.587 45.2145 112.609 45.3134 112.657 45.4001C112.705 45.4867 112.778 45.5574 112.866 45.6031C113.024 45.6895 113.189 45.7608 113.36 45.8161C113.553 45.8776 113.739 45.9602 113.914 46.0623C114.025 46.1297 114.117 46.2228 114.184 46.3337C114.242 46.4441 114.27 46.5673 114.268 46.6919Z" fill="#56565D"/>
<path d="M65.0028 41.2403L64.2657 38.8261H64.1395C63.2977 39.878 62.456 40.5965 61.6142 40.9815C60.7725 41.3665 59.685 41.5574 58.3519 41.5543C56.6474 41.5543 55.3169 41.0941 54.3604 40.1736C53.404 39.2532 52.9258 37.9519 52.9258 36.2699C52.9258 34.4816 53.5897 33.1335 54.9176 32.2257C56.2454 31.3179 58.2683 30.8214 60.9861 30.7362L63.9848 30.6415V29.7168C63.9848 28.6091 63.726 27.7807 63.2083 27.2316C62.6906 26.6825 61.8883 26.408 60.8014 26.408C59.9339 26.4047 59.0711 26.5373 58.2446 26.8009C57.4413 27.0573 56.6557 27.3661 55.893 27.7255L54.6998 25.0888C55.6769 24.5839 56.715 24.2068 57.7885 23.9669C58.8266 23.7209 59.8892 23.5923 60.9561 23.5835C63.1657 23.5835 64.8308 24.0642 65.9513 25.0257C67.0719 25.9872 67.6338 27.4972 67.637 29.5559V41.2324L65.0028 41.2403ZM59.5135 38.7314C60.8519 38.7314 61.9262 38.358 62.7364 37.6111C63.5466 36.8642 63.9517 35.816 63.9517 34.4663V32.9626L61.7247 33.0557C59.9907 33.1188 58.7281 33.4091 57.9368 33.9267C57.1456 34.4442 56.7505 35.2358 56.7515 36.3014C56.7515 37.0746 56.982 37.6732 57.4428 38.0971C57.9037 38.521 58.5939 38.7325 59.5135 38.7314Z" fill="#56565D"/>
<path d="M77.0657 41.5543C74.4426 41.5543 72.4487 40.7885 71.084 39.2569C69.7193 37.7253 69.0354 35.5278 69.0322 32.6644C69.0322 29.7484 69.7456 27.5062 71.1724 25.9378C72.5991 24.3693 74.6614 23.5856 77.3592 23.5867C79.0608 23.5596 80.7475 23.9076 82.2993 24.606L81.185 27.5693C79.632 26.9676 78.3488 26.6668 77.3356 26.6668C74.3358 26.6668 72.8359 28.6581 72.8359 32.6407C72.8359 34.5847 73.2094 36.0453 73.9565 37.0226C74.7035 37.9998 75.7988 38.4884 77.2425 38.4884C78.8747 38.491 80.4796 38.0696 81.9 37.2656V40.4798C81.2442 40.8652 80.5322 41.1458 79.7898 41.3113C78.8931 41.4897 77.9798 41.5712 77.0657 41.5543Z" fill="#56565D"/>
<path d="M96.0481 41.2403L95.532 38.9744H95.3426C94.807 39.7994 94.0485 40.4559 93.1551 40.8679C92.1428 41.3433 91.0347 41.5797 89.9165 41.559C87.8121 41.559 86.2443 41.0362 85.2132 39.9906C84.182 38.9449 83.6644 37.3612 83.6602 35.2395V23.9006H87.377V34.5925C87.377 35.919 87.649 36.9147 88.193 37.5795C88.737 38.2443 89.5898 38.5762 90.7514 38.5752C92.2981 38.5752 93.435 38.1123 94.162 37.1866C94.8891 36.2609 95.2526 34.7114 95.2526 32.5381V23.9006H98.9585V41.2403H96.0481Z" fill="#56565D"/>
<path d="M114.248 36.3014C114.248 37.9939 113.632 39.2926 112.399 40.1972C111.165 41.1019 109.398 41.5542 107.097 41.5542C104.782 41.5542 102.927 41.2039 101.531 40.5033V37.3207C103.57 38.2611 105.467 38.7313 107.223 38.7313C109.491 38.7313 110.625 38.0476 110.626 36.6801C110.64 36.2806 110.505 35.8902 110.249 35.5834C109.892 35.2106 109.473 34.9031 109.01 34.6745C108.233 34.27 107.432 33.9137 106.611 33.6079C104.612 32.8347 103.261 32.061 102.558 31.2868C101.855 30.5125 101.502 29.5095 101.499 28.2777C101.499 26.7924 102.098 25.64 103.295 24.8205C104.493 24.001 106.121 23.5908 108.18 23.5897C110.175 23.5808 112.149 24.0033 113.966 24.8284L112.774 27.6024C110.902 26.8292 109.329 26.4426 108.054 26.4426C106.109 26.4426 105.137 26.9964 105.137 28.1041C105.137 28.648 105.391 29.1082 105.898 29.4848C106.405 29.8614 107.51 30.3784 109.212 31.0359C110.643 31.5913 111.683 32.0983 112.332 32.557C112.933 32.965 113.428 33.5109 113.775 34.1491C114.105 34.8176 114.267 35.5562 114.248 36.3014Z" fill="#56565D"/>
<path d="M21.1915 11.1794H25.2098C25.2098 11.1794 16.5814 30.7139 20.3172 41.2402H10.7449L21.1915 11.1794Z" fill="#0F4775"/>
<path d="M25.4545 11.1794H21.1963L28.8857 41.2402H36.5735L25.4545 11.1794Z" fill="#A7AAAC"/>
<path d="M43.4329 23.847L43.5323 23.8218L43.4329 23.847Z" fill="#56565D"/>
<path d="M43.6332 23.7949L43.5322 23.8217L43.6364 23.7949H43.6332Z" fill="#56565D"/>
<path d="M50.4908 25.9377C50.3254 25.7232 50.1467 25.5192 49.9557 25.3271C48.7983 24.1699 47.2911 23.5914 45.434 23.5914C44.8285 23.5877 44.2249 23.6576 43.6363 23.7997L43.5321 23.8265L43.4327 23.8517C42.3237 24.1421 41.2415 24.4482 40.1862 24.7701C40.1862 24.7022 40.1862 24.6359 40.1972 24.5634C40.2382 23.7166 40.2588 23.0791 40.2588 22.6509V16.8442H36.5735V25.9582C19.8437 31.9101 10.7449 41.2403 10.7449 41.2403H20.3203C25.1609 36.8221 31.2925 33.0856 36.5766 30.3669V41.2403H39.337L40.011 39.189H40.2619C41.4751 40.7669 43.1791 41.5559 45.374 41.5559C47.5489 41.5559 49.2481 40.7637 50.4718 39.1795C51.6955 37.5953 52.3069 35.382 52.3058 32.5397C52.3037 29.7058 51.6987 27.5051 50.4908 25.9377ZM47.5062 36.991C46.8307 38.0261 45.8401 38.5436 44.5343 38.5436C43.0181 38.5436 41.9254 38.0703 41.2562 37.1235C40.587 36.1768 40.2525 34.6478 40.2525 32.5365V32.2856C40.2714 30.4395 40.5486 29.072 41.0842 28.1831C41.1394 28.087 41.1994 27.9938 41.2641 27.9038C41.9175 27.0317 42.9866 26.5957 44.4712 26.5957C44.5911 26.5957 44.7048 26.6036 44.82 26.6115C47.2821 26.7787 48.5148 28.7432 48.5179 32.505C48.5221 34.4616 48.1849 35.9569 47.5062 36.991Z" fill="#56565D"/>
<path d="M94.7063 18.9932C94.7092 18.503 94.8573 18.0245 95.1321 17.6184C95.4069 17.2124 95.7959 16.8969 96.2501 16.7119C96.7042 16.5268 97.203 16.4806 97.6834 16.579C98.1639 16.6774 98.6043 16.916 98.9491 17.2647C99.2938 17.6133 99.5274 18.0564 99.6204 18.5378C99.7133 19.0192 99.6613 19.5173 99.4711 19.9692C99.2808 20.4211 98.9608 20.8064 98.5515 21.0764C98.1422 21.3465 97.662 21.4891 97.1716 21.4863C96.846 21.4845 96.524 21.4185 96.2238 21.2922C95.9237 21.1659 95.6514 20.9817 95.4225 20.7502C95.1936 20.5187 95.0125 20.2444 94.8896 19.9429C94.7667 19.6415 94.7045 19.3188 94.7063 18.9932Z" fill="#0F4775"/>
<path d="M92.86 18.99C92.8649 18.211 93.1744 17.4648 93.7224 16.9111C94.2704 16.3573 95.0134 16.0399 95.7925 16.0267C95.3006 15.8198 94.7652 15.7377 94.234 15.7877C93.7027 15.8377 93.1921 16.0184 92.7475 16.3135C92.303 16.6087 91.9384 17.0092 91.6862 17.4793C91.434 17.9494 91.302 18.4747 91.302 19.0081C91.302 19.5416 91.434 20.0669 91.6862 20.537C91.9384 21.0071 92.303 21.4076 92.7475 21.7028C93.1921 21.9979 93.7027 22.1786 94.234 22.2286C94.7652 22.2786 95.3006 22.1965 95.7925 21.9896C95.0071 21.9763 94.2587 21.6539 93.7097 21.0923C93.1607 20.5307 92.8553 19.7753 92.86 18.99Z" fill="#0F4775"/>
<path d="M89.7381 18.9853C89.7462 18.0399 90.1229 17.135 90.7882 16.4631C91.4535 15.7912 92.3548 15.4054 93.3003 15.3877C92.7032 15.1367 92.0532 15.0373 91.4083 15.0982C90.7634 15.1592 90.1436 15.3786 89.6041 15.737C89.0645 16.0954 88.622 16.5816 88.3159 17.1523C88.0098 17.723 87.8496 18.3606 87.8496 19.0082C87.8496 19.6558 88.0098 20.2934 88.3159 20.8641C88.622 21.4349 89.0645 21.9211 89.6041 22.2795C90.1436 22.6378 90.7634 22.8573 91.4083 22.9182C92.0532 22.9792 92.7032 22.8797 93.3003 22.6287C92.3469 22.6109 91.4388 22.2188 90.7723 21.537C90.1057 20.8553 89.7342 19.9387 89.7381 18.9853Z" fill="#0F4775"/>
</svg>
