<svg width="119" height="159" viewBox="0 0 119 159" fill="none" xmlns="http://www.w3.org/2000/svg">
<path d="M13.9457 39.75C15.5138 39.75 16.785 38.4788 16.785 36.9107C16.785 35.3426 15.5138 34.0714 13.9457 34.0714C12.3776 34.0714 11.1064 35.3426 11.1064 36.9107C11.1064 38.4788 12.3776 39.75 13.9457 39.75Z" fill="#FFC226"/>
<path d="M30.9828 39.75C32.5509 39.75 33.8221 38.4788 33.8221 36.9107C33.8221 35.3426 32.5509 34.0714 30.9828 34.0714C29.4147 34.0714 28.1436 35.3426 28.1436 36.9107C28.1436 38.4788 29.4147 39.75 30.9828 39.75Z" fill="#FFC226"/>
<path d="M48.0178 39.75C49.5858 39.75 50.857 38.4788 50.857 36.9107C50.857 35.3426 49.5858 34.0714 48.0178 34.0714C46.4497 34.0714 45.1785 35.3426 45.1785 36.9107C45.1785 38.4788 46.4497 39.75 48.0178 39.75Z" fill="#FFC226"/>
<path d="M65.0539 39.75C66.622 39.75 67.8932 38.4788 67.8932 36.9107C67.8932 35.3426 66.622 34.0714 65.0539 34.0714C63.4858 34.0714 62.2146 35.3426 62.2146 36.9107C62.2146 38.4788 63.4858 39.75 65.0539 39.75Z" fill="#FFC226"/>
<path d="M13.9457 56.7856C15.5138 56.7856 16.785 55.5144 16.785 53.9463C16.785 52.3782 15.5138 51.1071 13.9457 51.1071C12.3776 51.1071 11.1064 52.3782 11.1064 53.9463C11.1064 55.5144 12.3776 56.7856 13.9457 56.7856Z" fill="#FFC226"/>
<path d="M30.9828 56.7856C32.5509 56.7856 33.8221 55.5144 33.8221 53.9463C33.8221 52.3782 32.5509 51.1071 30.9828 51.1071C29.4147 51.1071 28.1436 52.3782 28.1436 53.9463C28.1436 55.5144 29.4147 56.7856 30.9828 56.7856Z" fill="#FFC226"/>
<path d="M48.0178 56.7857C49.5858 56.7857 50.857 55.5146 50.857 53.9465C50.857 52.3784 49.5858 51.1072 48.0178 51.1072C46.4497 51.1072 45.1785 52.3784 45.1785 53.9465C45.1785 55.5146 46.4497 56.7857 48.0178 56.7857Z" fill="#FFC226"/>
<path d="M65.0539 56.7857C66.622 56.7857 67.8932 55.5146 67.8932 53.9465C67.8932 52.3784 66.622 51.1072 65.0539 51.1072C63.4858 51.1072 62.2146 52.3784 62.2146 53.9465C62.2146 55.5146 63.4858 56.7857 65.0539 56.7857Z" fill="#FFC226"/>
<path d="M13.9457 73.8215C15.5138 73.8215 16.785 72.5503 16.785 70.9822C16.785 69.4141 15.5138 68.1429 13.9457 68.1429C12.3776 68.1429 11.1064 69.4141 11.1064 70.9822C11.1064 72.5503 12.3776 73.8215 13.9457 73.8215Z" fill="#FFC226"/>
<path d="M30.9828 73.8215C32.5509 73.8215 33.8221 72.5503 33.8221 70.9822C33.8221 69.4141 32.5509 68.1429 30.9828 68.1429C29.4147 68.1429 28.1436 69.4141 28.1436 70.9822C28.1436 72.5503 29.4147 73.8215 30.9828 73.8215Z" fill="#FFC226"/>
<path d="M48.0178 73.8214C49.5858 73.8214 50.857 72.5502 50.857 70.9821C50.857 69.414 49.5858 68.1428 48.0178 68.1428C46.4497 68.1428 45.1785 69.414 45.1785 70.9821C45.1785 72.5502 46.4497 73.8214 48.0178 73.8214Z" fill="#FFC226"/>
<path d="M65.0539 73.8214C66.622 73.8214 67.8932 72.5502 67.8932 70.9821C67.8932 69.414 66.622 68.1428 65.0539 68.1428C63.4858 68.1428 62.2146 69.414 62.2146 70.9821C62.2146 72.5502 63.4858 73.8214 65.0539 73.8214Z" fill="#FFC226"/>
<path d="M13.9457 90.8572C15.5138 90.8572 16.785 89.586 16.785 88.0179C16.785 86.4498 15.5138 85.1786 13.9457 85.1786C12.3776 85.1786 11.1064 86.4498 11.1064 88.0179C11.1064 89.586 12.3776 90.8572 13.9457 90.8572Z" fill="#FFC226"/>
<path d="M30.9828 90.8572C32.5509 90.8572 33.8221 89.586 33.8221 88.0179C33.8221 86.4498 32.5509 85.1786 30.9828 85.1786C29.4147 85.1786 28.1436 86.4498 28.1436 88.0179C28.1436 89.586 29.4147 90.8572 30.9828 90.8572Z" fill="#FFC226"/>
<path d="M48.0178 90.8572C49.5858 90.8572 50.857 89.586 50.857 88.0179C50.857 86.4498 49.5858 85.1786 48.0178 85.1786C46.4497 85.1786 45.1785 86.4498 45.1785 88.0179C45.1785 89.586 46.4497 90.8572 48.0178 90.8572Z" fill="#FFC226"/>
<path d="M65.0539 90.8572C66.622 90.8572 67.8932 89.586 67.8932 88.0179C67.8932 86.4498 66.622 85.1786 65.0539 85.1786C63.4858 85.1786 62.2146 86.4498 62.2146 88.0179C62.2146 89.586 63.4858 90.8572 65.0539 90.8572Z" fill="#FFC226"/>
<path d="M13.9457 107.893C15.5138 107.893 16.785 106.622 16.785 105.054C16.785 103.485 15.5138 102.214 13.9457 102.214C12.3776 102.214 11.1064 103.485 11.1064 105.054C11.1064 106.622 12.3776 107.893 13.9457 107.893Z" fill="#FFC226"/>
<path d="M30.9828 107.893C32.5509 107.893 33.8221 106.622 33.8221 105.054C33.8221 103.485 32.5509 102.214 30.9828 102.214C29.4147 102.214 28.1436 103.485 28.1436 105.054C28.1436 106.622 29.4147 107.893 30.9828 107.893Z" fill="#FFC226"/>
<path d="M48.0178 107.893C49.5858 107.893 50.857 106.622 50.857 105.054C50.857 103.485 49.5858 102.214 48.0178 102.214C46.4497 102.214 45.1785 103.485 45.1785 105.054C45.1785 106.622 46.4497 107.893 48.0178 107.893Z" fill="#FFC226"/>
<path d="M65.0539 107.893C66.622 107.893 67.8932 106.622 67.8932 105.054C67.8932 103.485 66.622 102.214 65.0539 102.214C63.4858 102.214 62.2146 103.485 62.2146 105.054C62.2146 106.622 63.4858 107.893 65.0539 107.893Z" fill="#FFC226"/>
<path d="M13.9457 124.928C15.5138 124.928 16.785 123.657 16.785 122.089C16.785 120.521 15.5138 119.25 13.9457 119.25C12.3776 119.25 11.1064 120.521 11.1064 122.089C11.1064 123.657 12.3776 124.928 13.9457 124.928Z" fill="#FFC226"/>
<path d="M30.9828 124.928C32.5509 124.928 33.8221 123.657 33.8221 122.089C33.8221 120.521 32.5509 119.25 30.9828 119.25C29.4147 119.25 28.1436 120.521 28.1436 122.089C28.1436 123.657 29.4147 124.928 30.9828 124.928Z" fill="#FFC226"/>
<path d="M48.0178 124.929C49.5858 124.929 50.857 123.657 50.857 122.089C50.857 120.521 49.5858 119.25 48.0178 119.25C46.4497 119.25 45.1785 120.521 45.1785 122.089C45.1785 123.657 46.4497 124.929 48.0178 124.929Z" fill="#FFC226"/>
<path d="M65.0539 124.929C66.622 124.929 67.8932 123.657 67.8932 122.089C67.8932 120.521 66.622 119.25 65.0539 119.25C63.4858 119.25 62.2146 120.521 62.2146 122.089C62.2146 123.657 63.4858 124.929 65.0539 124.929Z" fill="#FFC226"/>
<path d="M13.9457 141.964C15.5138 141.964 16.785 140.693 16.785 139.125C16.785 137.557 15.5138 136.286 13.9457 136.286C12.3776 136.286 11.1064 137.557 11.1064 139.125C11.1064 140.693 12.3776 141.964 13.9457 141.964Z" fill="#FFC226"/>
<path d="M30.9828 141.964C32.5509 141.964 33.8221 140.693 33.8221 139.125C33.8221 137.557 32.5509 136.286 30.9828 136.286C29.4147 136.286 28.1436 137.557 28.1436 139.125C28.1436 140.693 29.4147 141.964 30.9828 141.964Z" fill="#FFC226"/>
<path d="M48.0178 141.964C49.5858 141.964 50.857 140.693 50.857 139.125C50.857 137.557 49.5858 136.286 48.0178 136.286C46.4497 136.286 45.1785 137.557 45.1785 139.125C45.1785 140.693 46.4497 141.964 48.0178 141.964Z" fill="#FFC226"/>
<path d="M65.0539 141.964C66.622 141.964 67.8932 140.693 67.8932 139.125C67.8932 137.557 66.622 136.286 65.0539 136.286C63.4858 136.286 62.2146 137.557 62.2146 139.125C62.2146 140.693 63.4858 141.964 65.0539 141.964Z" fill="#FFC226"/>
<path d="M13.9457 159C15.5138 159 16.785 157.729 16.785 156.161C16.785 154.593 15.5138 153.321 13.9457 153.321C12.3776 153.321 11.1064 154.593 11.1064 156.161C11.1064 157.729 12.3776 159 13.9457 159Z" fill="#FFC226"/>
<path d="M30.9828 159C32.5509 159 33.8221 157.729 33.8221 156.161C33.8221 154.593 32.5509 153.321 30.9828 153.321C29.4147 153.321 28.1436 154.593 28.1436 156.161C28.1436 157.729 29.4147 159 30.9828 159Z" fill="#FFC226"/>
<path d="M48.0178 159C49.5858 159 50.857 157.729 50.857 156.161C50.857 154.593 49.5858 153.321 48.0178 153.321C46.4497 153.321 45.1785 154.593 45.1785 156.161C45.1785 157.729 46.4497 159 48.0178 159Z" fill="#FFC226"/>
<path d="M65.0539 159C66.622 159 67.8932 157.729 67.8932 156.161C67.8932 154.593 66.622 153.321 65.0539 153.321C63.4858 153.321 62.2146 154.593 62.2146 156.161C62.2146 157.729 63.4858 159 65.0539 159Z" fill="#FFC226"/>
<path d="M13.946 5.67857C15.5141 5.67857 16.7853 4.40738 16.7853 2.83929C16.7853 1.27119 15.5141 0 13.946 0C12.3779 0 11.1067 1.27119 11.1067 2.83929C11.1067 4.40738 12.3779 5.67857 13.946 5.67857Z" fill="#0F4775"/>
<path d="M30.9824 5.67857C32.5504 5.67857 33.8216 4.40738 33.8216 2.83929C33.8216 1.27119 32.5504 0 30.9824 0C29.4143 0 28.1431 1.27119 28.1431 2.83929C28.1431 4.40738 29.4143 5.67857 30.9824 5.67857Z" fill="#0F4775"/>
<path d="M48.0173 5.67857C49.5854 5.67857 50.8566 4.40738 50.8566 2.83929C50.8566 1.27119 49.5854 0 48.0173 0C46.4492 0 45.178 1.27119 45.178 2.83929C45.178 4.40738 46.4492 5.67857 48.0173 5.67857Z" fill="#0F4775"/>
<path d="M65.0534 5.67857C66.6215 5.67857 67.8927 4.40738 67.8927 2.83929C67.8927 1.27119 66.6215 0 65.0534 0C63.4853 0 62.2141 1.27119 62.2141 2.83929C62.2141 4.40738 63.4853 5.67857 65.0534 5.67857Z" fill="#0F4775"/>
<path d="M82.0895 5.67857C83.6576 5.67857 84.9288 4.40738 84.9288 2.83929C84.9288 1.27119 83.6576 0 82.0895 0C80.5214 0 79.2502 1.27119 79.2502 2.83929C79.2502 4.40738 80.5214 5.67857 82.0895 5.67857Z" fill="#0F4775"/>
<path d="M99.1247 5.67857C100.693 5.67857 101.964 4.40738 101.964 2.83929C101.964 1.27119 100.693 0 99.1247 0C97.5566 0 96.2854 1.27119 96.2854 2.83929C96.2854 4.40738 97.5566 5.67857 99.1247 5.67857Z" fill="#0F4775"/>
<path d="M116.161 5.67857C117.729 5.67857 119 4.40738 119 2.83929C119 1.27119 117.729 0 116.161 0C114.593 0 113.322 1.27119 113.322 2.83929C113.322 4.40738 114.593 5.67857 116.161 5.67857Z" fill="#0F4775"/>
<path d="M13.946 22.7143C15.5141 22.7143 16.7853 21.4431 16.7853 19.8751C16.7853 18.307 15.5141 17.0358 13.946 17.0358C12.3779 17.0358 11.1067 18.307 11.1067 19.8751C11.1067 21.4431 12.3779 22.7143 13.946 22.7143Z" fill="#0F4775"/>
<path d="M30.9824 22.7143C32.5504 22.7143 33.8216 21.4431 33.8216 19.8751C33.8216 18.307 32.5504 17.0358 30.9824 17.0358C29.4143 17.0358 28.1431 18.307 28.1431 19.8751C28.1431 21.4431 29.4143 22.7143 30.9824 22.7143Z" fill="#0F4775"/>
<path d="M48.0173 22.7142C49.5854 22.7142 50.8566 21.443 50.8566 19.8749C50.8566 18.3068 49.5854 17.0356 48.0173 17.0356C46.4492 17.0356 45.178 18.3068 45.178 19.8749C45.178 21.443 46.4492 22.7142 48.0173 22.7142Z" fill="#0F4775"/>
<path d="M65.0534 22.7142C66.6215 22.7142 67.8927 21.443 67.8927 19.8749C67.8927 18.3068 66.6215 17.0356 65.0534 17.0356C63.4853 17.0356 62.2141 18.3068 62.2141 19.8749C62.2141 21.443 63.4853 22.7142 65.0534 22.7142Z" fill="#0F4775"/>
<path d="M82.0895 22.7142C83.6576 22.7142 84.9288 21.443 84.9288 19.8749C84.9288 18.3068 83.6576 17.0356 82.0895 17.0356C80.5214 17.0356 79.2502 18.3068 79.2502 19.8749C79.2502 21.443 80.5214 22.7142 82.0895 22.7142Z" fill="#0F4775"/>
<path d="M99.1247 22.7142C100.693 22.7142 101.964 21.443 101.964 19.8749C101.964 18.3068 100.693 17.0356 99.1247 17.0356C97.5566 17.0356 96.2854 18.3068 96.2854 19.8749C96.2854 21.443 97.5566 22.7142 99.1247 22.7142Z" fill="#0F4775"/>
<path d="M116.161 22.7142C117.729 22.7142 119 21.443 119 19.8749C119 18.3068 117.729 17.0356 116.161 17.0356C114.593 17.0356 113.322 18.3068 113.322 19.8749C113.322 21.443 114.593 22.7142 116.161 22.7142Z" fill="#0F4775"/>
<path d="M13.946 39.75C15.5141 39.75 16.7853 38.4788 16.7853 36.9107C16.7853 35.3426 15.5141 34.0714 13.946 34.0714C12.3779 34.0714 11.1067 35.3426 11.1067 36.9107C11.1067 38.4788 12.3779 39.75 13.946 39.75Z" fill="#0F4775"/>
<path d="M30.9824 39.75C32.5504 39.75 33.8216 38.4788 33.8216 36.9107C33.8216 35.3426 32.5504 34.0714 30.9824 34.0714C29.4143 34.0714 28.1431 35.3426 28.1431 36.9107C28.1431 38.4788 29.4143 39.75 30.9824 39.75Z" fill="#0F4775"/>
<path d="M48.0173 39.7501C49.5854 39.7501 50.8566 38.4789 50.8566 36.9108C50.8566 35.3427 49.5854 34.0715 48.0173 34.0715C46.4492 34.0715 45.178 35.3427 45.178 36.9108C45.178 38.4789 46.4492 39.7501 48.0173 39.7501Z" fill="#0F4775"/>
<path d="M65.0534 39.7501C66.6215 39.7501 67.8927 38.4789 67.8927 36.9108C67.8927 35.3427 66.6215 34.0715 65.0534 34.0715C63.4853 34.0715 62.2141 35.3427 62.2141 36.9108C62.2141 38.4789 63.4853 39.7501 65.0534 39.7501Z" fill="#0F4775"/>
<path d="M82.0895 39.7501C83.6576 39.7501 84.9288 38.4789 84.9288 36.9108C84.9288 35.3427 83.6576 34.0715 82.0895 34.0715C80.5214 34.0715 79.2502 35.3427 79.2502 36.9108C79.2502 38.4789 80.5214 39.7501 82.0895 39.7501Z" fill="#0F4775"/>
<path d="M99.1247 39.7501C100.693 39.7501 101.964 38.4789 101.964 36.9108C101.964 35.3427 100.693 34.0715 99.1247 34.0715C97.5566 34.0715 96.2854 35.3427 96.2854 36.9108C96.2854 38.4789 97.5566 39.7501 99.1247 39.7501Z" fill="#0F4775"/>
<path d="M116.161 39.7501C117.729 39.7501 119 38.4789 119 36.9108C119 35.3427 117.729 34.0715 116.161 34.0715C114.593 34.0715 113.322 35.3427 113.322 36.9108C113.322 38.4789 114.593 39.7501 116.161 39.7501Z" fill="#0F4775"/>
<path d="M13.946 56.7857C15.5141 56.7857 16.7853 55.5146 16.7853 53.9465C16.7853 52.3784 15.5141 51.1072 13.946 51.1072C12.3779 51.1072 11.1067 52.3784 11.1067 53.9465C11.1067 55.5146 12.3779 56.7857 13.946 56.7857Z" fill="#0F4775"/>
<path d="M30.9824 56.7857C32.5504 56.7857 33.8216 55.5146 33.8216 53.9465C33.8216 52.3784 32.5504 51.1072 30.9824 51.1072C29.4143 51.1072 28.1431 52.3784 28.1431 53.9465C28.1431 55.5146 29.4143 56.7857 30.9824 56.7857Z" fill="#0F4775"/>
<path d="M48.0173 56.7857C49.5854 56.7857 50.8566 55.5146 50.8566 53.9465C50.8566 52.3784 49.5854 51.1072 48.0173 51.1072C46.4492 51.1072 45.178 52.3784 45.178 53.9465C45.178 55.5146 46.4492 56.7857 48.0173 56.7857Z" fill="#0F4775"/>
<path d="M65.0534 56.7857C66.6215 56.7857 67.8927 55.5146 67.8927 53.9465C67.8927 52.3784 66.6215 51.1072 65.0534 51.1072C63.4853 51.1072 62.2141 52.3784 62.2141 53.9465C62.2141 55.5146 63.4853 56.7857 65.0534 56.7857Z" fill="#0F4775"/>
<path d="M82.0895 56.7857C83.6576 56.7857 84.9288 55.5146 84.9288 53.9465C84.9288 52.3784 83.6576 51.1072 82.0895 51.1072C80.5214 51.1072 79.2502 52.3784 79.2502 53.9465C79.2502 55.5146 80.5214 56.7857 82.0895 56.7857Z" fill="#0F4775"/>
<path d="M99.1247 56.7857C100.693 56.7857 101.964 55.5146 101.964 53.9465C101.964 52.3784 100.693 51.1072 99.1247 51.1072C97.5566 51.1072 96.2854 52.3784 96.2854 53.9465C96.2854 55.5146 97.5566 56.7857 99.1247 56.7857Z" fill="#0F4775"/>
<path d="M116.161 56.7857C117.729 56.7857 119 55.5146 119 53.9465C119 52.3784 117.729 51.1072 116.161 51.1072C114.593 51.1072 113.322 52.3784 113.322 53.9465C113.322 55.5146 114.593 56.7857 116.161 56.7857Z" fill="#0F4775"/>
<path d="M13.946 73.8214C15.5141 73.8214 16.7853 72.5502 16.7853 70.9821C16.7853 69.414 15.5141 68.1428 13.946 68.1428C12.3779 68.1428 11.1067 69.414 11.1067 70.9821C11.1067 72.5502 12.3779 73.8214 13.946 73.8214Z" fill="#0F4775"/>
<path d="M30.9824 73.8214C32.5504 73.8214 33.8216 72.5502 33.8216 70.9821C33.8216 69.414 32.5504 68.1428 30.9824 68.1428C29.4143 68.1428 28.1431 69.414 28.1431 70.9821C28.1431 72.5502 29.4143 73.8214 30.9824 73.8214Z" fill="#0F4775"/>
<path d="M48.0173 73.8214C49.5854 73.8214 50.8566 72.5502 50.8566 70.9821C50.8566 69.414 49.5854 68.1428 48.0173 68.1428C46.4492 68.1428 45.178 69.414 45.178 70.9821C45.178 72.5502 46.4492 73.8214 48.0173 73.8214Z" fill="#0F4775"/>
<path d="M65.0534 73.8214C66.6215 73.8214 67.8927 72.5502 67.8927 70.9821C67.8927 69.414 66.6215 68.1428 65.0534 68.1428C63.4853 68.1428 62.2141 69.414 62.2141 70.9821C62.2141 72.5502 63.4853 73.8214 65.0534 73.8214Z" fill="#0F4775"/>
<path d="M82.0895 73.8214C83.6576 73.8214 84.9288 72.5502 84.9288 70.9821C84.9288 69.414 83.6576 68.1428 82.0895 68.1428C80.5214 68.1428 79.2502 69.414 79.2502 70.9821C79.2502 72.5502 80.5214 73.8214 82.0895 73.8214Z" fill="#0F4775"/>
<path d="M99.1247 73.8214C100.693 73.8214 101.964 72.5502 101.964 70.9821C101.964 69.414 100.693 68.1428 99.1247 68.1428C97.5566 68.1428 96.2854 69.414 96.2854 70.9821C96.2854 72.5502 97.5566 73.8214 99.1247 73.8214Z" fill="#0F4775"/>
<path d="M116.161 73.8214C117.729 73.8214 119 72.5502 119 70.9821C119 69.414 117.729 68.1428 116.161 68.1428C114.593 68.1428 113.322 69.414 113.322 70.9821C113.322 72.5502 114.593 73.8214 116.161 73.8214Z" fill="#0F4775"/>
<path d="M13.946 90.8572C15.5141 90.8572 16.7853 89.586 16.7853 88.0179C16.7853 86.4498 15.5141 85.1786 13.946 85.1786C12.3779 85.1786 11.1067 86.4498 11.1067 88.0179C11.1067 89.586 12.3779 90.8572 13.946 90.8572Z" fill="#0F4775"/>
<path d="M30.9824 90.8572C32.5504 90.8572 33.8216 89.586 33.8216 88.0179C33.8216 86.4498 32.5504 85.1786 30.9824 85.1786C29.4143 85.1786 28.1431 86.4498 28.1431 88.0179C28.1431 89.586 29.4143 90.8572 30.9824 90.8572Z" fill="#0F4775"/>
<path d="M48.0173 90.857C49.5854 90.857 50.8566 89.5858 50.8566 88.0178C50.8566 86.4497 49.5854 85.1785 48.0173 85.1785C46.4492 85.1785 45.178 86.4497 45.178 88.0178C45.178 89.5858 46.4492 90.857 48.0173 90.857Z" fill="#0F4775"/>
<path d="M65.0534 90.857C66.6215 90.857 67.8927 89.5858 67.8927 88.0178C67.8927 86.4497 66.6215 85.1785 65.0534 85.1785C63.4853 85.1785 62.2141 86.4497 62.2141 88.0178C62.2141 89.5858 63.4853 90.857 65.0534 90.857Z" fill="#0F4775"/>
<path d="M82.0895 90.857C83.6576 90.857 84.9288 89.5858 84.9288 88.0178C84.9288 86.4497 83.6576 85.1785 82.0895 85.1785C80.5214 85.1785 79.2502 86.4497 79.2502 88.0178C79.2502 89.5858 80.5214 90.857 82.0895 90.857Z" fill="#0F4775"/>
<path d="M99.1247 90.857C100.693 90.857 101.964 89.5858 101.964 88.0178C101.964 86.4497 100.693 85.1785 99.1247 85.1785C97.5566 85.1785 96.2854 86.4497 96.2854 88.0178C96.2854 89.5858 97.5566 90.857 99.1247 90.857Z" fill="#0F4775"/>
<path d="M116.161 90.857C117.729 90.857 119 89.5858 119 88.0178C119 86.4497 117.729 85.1785 116.161 85.1785C114.593 85.1785 113.322 86.4497 113.322 88.0178C113.322 89.5858 114.593 90.857 116.161 90.857Z" fill="#0F4775"/>
<path d="M13.946 107.893C15.5141 107.893 16.7853 106.622 16.7853 105.054C16.7853 103.485 15.5141 102.214 13.946 102.214C12.3779 102.214 11.1067 103.485 11.1067 105.054C11.1067 106.622 12.3779 107.893 13.946 107.893Z" fill="#0F4775"/>
<path d="M30.9824 107.893C32.5504 107.893 33.8216 106.622 33.8216 105.054C33.8216 103.485 32.5504 102.214 30.9824 102.214C29.4143 102.214 28.1431 103.485 28.1431 105.054C28.1431 106.622 29.4143 107.893 30.9824 107.893Z" fill="#0F4775"/>
<path d="M48.0173 107.893C49.5854 107.893 50.8566 106.622 50.8566 105.054C50.8566 103.486 49.5854 102.214 48.0173 102.214C46.4492 102.214 45.178 103.486 45.178 105.054C45.178 106.622 46.4492 107.893 48.0173 107.893Z" fill="#0F4775"/>
<path d="M65.0534 107.893C66.6215 107.893 67.8927 106.622 67.8927 105.054C67.8927 103.486 66.6215 102.214 65.0534 102.214C63.4853 102.214 62.2141 103.486 62.2141 105.054C62.2141 106.622 63.4853 107.893 65.0534 107.893Z" fill="#0F4775"/>
<path d="M82.0895 107.893C83.6576 107.893 84.9288 106.622 84.9288 105.054C84.9288 103.486 83.6576 102.214 82.0895 102.214C80.5214 102.214 79.2502 103.486 79.2502 105.054C79.2502 106.622 80.5214 107.893 82.0895 107.893Z" fill="#0F4775"/>
<path d="M99.1247 107.893C100.693 107.893 101.964 106.622 101.964 105.054C101.964 103.486 100.693 102.214 99.1247 102.214C97.5566 102.214 96.2854 103.486 96.2854 105.054C96.2854 106.622 97.5566 107.893 99.1247 107.893Z" fill="#0F4775"/>
<path d="M116.161 107.893C117.729 107.893 119 106.622 119 105.054C119 103.486 117.729 102.214 116.161 102.214C114.593 102.214 113.322 103.486 113.322 105.054C113.322 106.622 114.593 107.893 116.161 107.893Z" fill="#0F4775"/>
<path d="M13.946 124.929C15.5141 124.929 16.7853 123.657 16.7853 122.089C16.7853 120.521 15.5141 119.25 13.946 119.25C12.3779 119.25 11.1067 120.521 11.1067 122.089C11.1067 123.657 12.3779 124.929 13.946 124.929Z" fill="#0F4775"/>
<path d="M30.9824 124.929C32.5504 124.929 33.8216 123.657 33.8216 122.089C33.8216 120.521 32.5504 119.25 30.9824 119.25C29.4143 119.25 28.1431 120.521 28.1431 122.089C28.1431 123.657 29.4143 124.929 30.9824 124.929Z" fill="#0F4775"/>
<path d="M48.0173 124.929C49.5854 124.929 50.8566 123.657 50.8566 122.089C50.8566 120.521 49.5854 119.25 48.0173 119.25C46.4492 119.25 45.178 120.521 45.178 122.089C45.178 123.657 46.4492 124.929 48.0173 124.929Z" fill="#0F4775"/>
<path d="M65.0534 124.929C66.6215 124.929 67.8927 123.657 67.8927 122.089C67.8927 120.521 66.6215 119.25 65.0534 119.25C63.4853 119.25 62.2141 120.521 62.2141 122.089C62.2141 123.657 63.4853 124.929 65.0534 124.929Z" fill="#0F4775"/>
<path d="M82.0895 124.929C83.6576 124.929 84.9288 123.657 84.9288 122.089C84.9288 120.521 83.6576 119.25 82.0895 119.25C80.5214 119.25 79.2502 120.521 79.2502 122.089C79.2502 123.657 80.5214 124.929 82.0895 124.929Z" fill="#0F4775"/>
<path d="M99.1247 124.929C100.693 124.929 101.964 123.657 101.964 122.089C101.964 120.521 100.693 119.25 99.1247 119.25C97.5566 119.25 96.2854 120.521 96.2854 122.089C96.2854 123.657 97.5566 124.929 99.1247 124.929Z" fill="#0F4775"/>
<path d="M116.161 124.929C117.729 124.929 119 123.657 119 122.089C119 120.521 117.729 119.25 116.161 119.25C114.593 119.25 113.322 120.521 113.322 122.089C113.322 123.657 114.593 124.929 116.161 124.929Z" fill="#0F4775"/>
</svg>
